<?xml version="1.0" encoding="UTF-8"?>
<svg version="1.1" xmlns="http://www.w3.org/2000/svg" width="512" height="512">
<path d="M0 0 C1.01790619 0.00215515 2.03581238 0.0043103 3.08456421 0.00653076 C17.69363523 0.05620146 32.02575853 0.30709809 46.375 3.3125 C47.34985352 3.51117676 48.32470703 3.70985352 49.32910156 3.91455078 C88.38660539 12.08468046 124.82400319 27.71035417 156.375 52.3125 C157.25929688 52.98539063 158.14359375 53.65828125 159.0546875 54.3515625 C174.64162389 66.45260257 189.26666068 80.75087979 201.375 96.3125 C202.15101563 97.2715625 202.92703125 98.230625 203.7265625 99.21875 C238.25804162 142.62975232 256.81395322 197.76040062 256.69067383 253.03979492 C256.6875221 255.97938487 256.71104926 258.9179558 256.73632812 261.85742188 C256.78098737 275.23056192 255.57551542 288.12666711 253.375 301.3125 C253.09281616 303.01805054 253.09281616 303.01805054 252.80493164 304.75805664 C245.77946967 343.86954746 228.79665906 381.05202178 204.375 412.3125 C203.61574219 413.28445313 202.85648437 414.25640625 202.07421875 415.2578125 C189.73986402 430.63741644 175.93895499 445.19015196 160.375 457.3125 C159.43914062 458.07691406 158.50328125 458.84132813 157.5390625 459.62890625 C125.58628299 485.2157721 86.41988322 501.72551276 46.375 509.3125 C45.56562988 509.47621094 44.75625977 509.63992188 43.92236328 509.80859375 C13.88110013 515.67977137 -20.7615176 514.58512909 -50.625 508.3125 C-52.14794678 507.99901611 -52.14794678 507.99901611 -53.70166016 507.67919922 C-90.84546555 499.78695344 -125.70945445 483.68345578 -155.625 460.3125 C-156.59695312 459.55324219 -157.56890625 458.79398437 -158.5703125 458.01171875 C-173.94991644 445.67736402 -188.50265196 431.87645499 -200.625 416.3125 C-201.77162109 414.90871094 -201.77162109 414.90871094 -202.94140625 413.4765625 C-228.5282721 381.52378299 -245.03801276 342.35738322 -252.625 302.3125 C-252.78871094 301.50312988 -252.95242187 300.69375977 -253.12109375 299.85986328 C-258.59069558 271.87335724 -258.46977511 238.21828161 -252.625 210.3125 C-252.42632324 209.33764648 -252.22764648 208.36279297 -252.02294922 207.35839844 C-241.93598313 159.13741149 -219.89911449 114.53770064 -185.40722656 79.14160156 C-183.63301167 77.32072238 -181.87518486 75.48496071 -180.1171875 73.6484375 C-173.01832106 66.31138736 -165.60682072 59.74213624 -157.41796875 53.64794922 C-155.58092428 52.27967127 -153.75911069 50.89264471 -151.9375 49.50390625 C-143.51077324 43.13790222 -134.81596417 37.50688619 -125.625 32.3125 C-124.99464844 31.94946777 -124.36429688 31.58643555 -123.71484375 31.21240234 C-85.96656579 9.60246645 -43.19754839 -0.16448837 0 0 Z M-159.76733398 97.22045898 C-165.84010339 103.23641547 -171.42520585 109.51834388 -176.625 116.3125 C-177.05522461 116.87163086 -177.48544922 117.43076172 -177.92871094 118.00683594 C-184.85940109 127.06247864 -190.99367024 136.40178046 -196.625 146.3125 C-196.96096191 146.88871094 -197.29692383 147.46492188 -197.64306641 148.05859375 C-214.08710938 176.34459259 -224.55073335 211.56108774 -224.86328125 244.3671875 C-224.87302979 245.21805435 -224.88277832 246.0689212 -224.89282227 246.9455719 C-225.06694131 266.09507504 -224.79273114 284.52860083 -220.625 303.3125 C-220.44308105 304.15635254 -220.26116211 305.00020508 -220.07373047 305.86962891 C-209.09567118 355.34447521 -179.99744852 402.4141194 -139.625 433.3125 C-139.06586914 433.74272461 -138.50673828 434.17294922 -137.93066406 434.61621094 C-128.87502136 441.54690109 -119.53571954 447.68117024 -109.625 453.3125 C-109.04878906 453.64846191 -108.47257812 453.98442383 -107.87890625 454.33056641 C-59.27458557 482.58664966 1.88453222 488.9526783 55.96264648 475.29418945 C103.23101751 462.60148199 147.42200581 435.44968752 177.375 396.3125 C177.80522461 395.75336914 178.23544922 395.19423828 178.67871094 394.61816406 C185.60779478 385.56462017 191.75698199 376.22895504 197.375 366.3125 C197.7162793 365.72033691 198.05755859 365.12817383 198.40917969 364.51806641 C209.61575317 344.97358777 216.90472604 323.47624692 221.625 301.5 C221.77614258 300.79673584 221.92728516 300.09347168 222.08300781 299.36889648 C224.94574493 285.21838043 225.78201133 271.39087204 225.75 257 C225.74945618 256.0776355 225.74891235 255.155271 225.74835205 254.20495605 C225.58393473 193.36528498 200.42504284 137.5149632 157.8125 94.5 C152.30261657 89.04208894 146.5374655 84.02884026 140.375 79.3125 C139.81586914 78.88227539 139.25673828 78.45205078 138.68066406 78.00878906 C129.62712017 71.07970522 120.29145504 64.93051801 110.375 59.3125 C109.78283691 58.9712207 109.19067383 58.62994141 108.58056641 58.27832031 C86.3029143 45.5045774 61.60898619 37.60499098 36.375 33.3125 C35.11429687 33.09722656 33.85359375 32.88195313 32.5546875 32.66015625 C-38.33118993 21.98832635 -108.90058387 47.75874642 -159.76733398 97.22045898 Z " fill="#000000" transform="translate(255.625,-0.3125)"/>
<path d="M0 0 C2.02652168 -0.0043531 4.05304171 -0.00953823 6.07955933 -0.01548767 C11.55909788 -0.02882599 17.03856724 -0.029462 22.51811886 -0.02692437 C27.10517846 -0.02585094 31.69222427 -0.03074764 36.2792809 -0.03552979 C47.10904942 -0.04660757 57.93878325 -0.04707242 68.76855469 -0.04101562 C79.91058537 -0.03497961 91.05248965 -0.04728144 102.19449878 -0.06858569 C111.78724046 -0.08624773 121.37994208 -0.09219572 130.9726994 -0.08894795 C136.69017556 -0.08714195 142.40756158 -0.08970254 148.12502289 -0.10366249 C153.50628794 -0.11631094 158.88735721 -0.11423079 164.26861954 -0.1012516 C166.23287398 -0.09890131 168.1971425 -0.10156431 170.16138077 -0.10987473 C202.12768036 -0.23526636 228.58267167 10.27130826 251.40332031 32.6887207 C252.53046525 33.83772698 253.65300142 34.99127547 254.77050781 36.1496582 C255.3012793 36.68494141 255.83205078 37.22022461 256.37890625 37.77172852 C259.86752611 41.52888495 259.86752611 41.52888495 259.98535156 44.66918945 C258.45688009 48.32327717 256.6132378 51.68897406 254.58300781 55.0871582 C254.142229 55.82909424 253.7014502 56.57103027 253.24731445 57.33544922 C246.508718 68.44725245 238.63449162 78.73260838 229.77832031 88.23950195 C228.21089343 89.93375383 226.76061574 91.65164881 225.33300781 93.4621582 C222.15126537 97.13339948 218.59844475 100.14186553 214.89550781 103.2746582 C213.94546875 104.11254883 212.99542969 104.95043945 212.01660156 105.8137207 C187.06810979 127.68958406 156.22025433 142.18601851 123.89550781 149.2746582 C123.19393555 149.43836914 122.49236328 149.60208008 121.76953125 149.77075195 C96.15379666 155.53458995 65.2506877 154.58438639 39.89550781 148.2746582 C38.89680664 148.02796387 37.89810547 147.78126953 36.86914062 147.52709961 C23.27109882 144.06272518 10.45805549 139.51387318 -2.10449219 133.2746582 C-2.81653809 132.92677246 -3.52858398 132.57888672 -4.26220703 132.22045898 C-20.44255226 124.25245035 -34.61154699 114.18767577 -48.10449219 102.2746582 C-48.94882813 101.5527832 -49.79316406 100.8309082 -50.66308594 100.0871582 C-55.61185034 95.8143633 -59.92078104 91.28986006 -64.10449219 86.2746582 C-64.86503906 85.40196289 -65.62558594 84.52926758 -66.40917969 83.63012695 C-73.01419298 75.94485448 -78.7325128 67.86328732 -84.10449219 59.2746582 C-84.51070801 58.6254541 -84.91692383 57.97625 -85.33544922 57.30737305 C-86.50713511 55.41159567 -87.65463525 53.50369329 -88.79199219 51.5871582 C-89.78779297 49.91073242 -89.78779297 49.91073242 -90.80371094 48.20043945 C-92.23040466 44.99144966 -92.2714395 44.42385901 -91.10449219 41.2746582 C-89.91210938 39.60229492 -89.91210938 39.60229492 -88.40136719 37.9543457 C-87.55940796 37.03504272 -87.55940796 37.03504272 -86.70043945 36.09716797 C-86.09127686 35.45448975 -85.48211426 34.81181152 -84.85449219 34.1496582 C-83.90884399 33.14986938 -83.90884399 33.14986938 -82.9440918 32.12988281 C-60.15756046 8.5229338 -32.13841329 -0.04572577 0 0 Z M-15.2849884 31.1492157 C-15.96381913 31.22465223 -16.64264985 31.30008876 -17.34205121 31.37781125 C-30.08664445 32.98689428 -43.50253406 38.66600609 -53.10449219 47.2746582 C-44.52706133 72.67704958 -11.81885357 93.88616587 10.89550781 105.2746582 C52.09508215 124.46065618 97.62628711 127.4890863 140.61572266 112.11914062 C148.70017109 109.09916092 156.34452749 105.43970631 163.89550781 101.2746582 C164.51731934 100.93740723 165.13913086 100.60015625 165.77978516 100.25268555 C184.16038098 90.18040586 213.93316009 69.86857766 220.65332031 48.91137695 C220.73324219 48.37125977 220.81316406 47.83114258 220.89550781 47.2746582 C201.2890707 31.76860577 180.43409738 30.12105743 156.27954102 30.12939453 C154.53197661 30.12639636 152.78441287 30.12299234 151.03684998 30.11921692 C146.3216899 30.11043929 141.60654801 30.10804144 136.89138055 30.10740113 C133.93631 30.10668704 130.98124397 30.10454595 128.02617455 30.10190392 C117.69070521 30.09267089 107.35524871 30.08856643 97.01977539 30.08935547 C87.42796303 30.0899556 77.83620702 30.07941117 68.24440891 30.06361181 C59.97390333 30.05048059 51.70341604 30.04517391 43.43290013 30.04581088 C38.50904712 30.04606424 33.58524425 30.04330324 28.66140175 30.03263283 C24.0245959 30.0228574 19.38788719 30.02293643 14.75107765 30.03014946 C13.06340897 30.0311837 11.37573394 30.02890279 9.68807602 30.022789 C1.30946363 29.99443725 -6.95331697 30.20577246 -15.2849884 31.1492157 Z " fill="#000000" transform="translate(172.1044921875,299.725341796875)"/>
<path d="M0 0 C1.1034375 0.350625 2.206875 0.70125 3.34375 1.0625 C30.5421571 10.56873937 51.67817839 30.59010284 64.25 56.3125 C74.61412561 79.81221656 77.25395683 108.45533889 69 133 C68.649375 134.1034375 68.29875 135.206875 67.9375 136.34375 C58.43126063 163.5421571 38.40989716 184.67817839 12.6875 197.25 C-13.54688866 208.80600678 -44.15100462 209.91150928 -70.94775391 199.6015625 C-97.52152838 188.75248811 -118.053779 168.80650806 -129.65234375 142.5078125 C-138.49251398 119.49774622 -140.95166641 92.64574486 -133 69 C-132.649375 67.8965625 -132.29875 66.793125 -131.9375 65.65625 C-122.4210445 38.42861343 -102.437029 17.35151731 -76.6875 4.75 C-53.18778344 -5.61412561 -24.54466111 -8.25395683 0 0 Z M-86 49 C-100.81428179 64.40685307 -106.65655135 83.35808919 -106.3984375 104.36694336 C-105.91263332 121.03345893 -99.84830636 136.2335873 -89 149 C-88.2575 149.99 -87.515 150.98 -86.75 152 C-78.94138341 161.0570161 -68.70644621 166.18701042 -58 171 C-57.20980469 171.36222656 -56.41960937 171.72445312 -55.60546875 172.09765625 C-38.1134143 178.96337388 -17.74940848 176.25336266 -1 169 C18.60516782 160.13666502 31.29995222 144.63512183 39 125 C39.54140625 123.62714844 39.54140625 123.62714844 40.09375 122.2265625 C45.88235633 103.94957399 42.6239913 83.32995246 34.12182617 66.66064453 C31.50614032 61.72848192 28.62084469 57.26105201 25 53 C24.2575 52.01 23.515 51.02 22.75 50 C10.48538173 35.72984667 -8.11786547 28.13541612 -26.4375 26.125 C-49.15509746 24.98074755 -69.60251857 33.38110402 -86 49 Z " fill="#000000" transform="translate(288,64)"/>
</svg>
