<svg xmlns="http://www.w3.org/2000/svg" xml:space="preserve" width="72" height="72" id="planet">
  <path d="M58.818 13.181C52.725 7.087 44.621 3.73 36.002 3.73 18.208 3.73 3.731 18.207 3.73 36c.001 17.793 14.478 32.27 32.272 32.27 8.619 0 16.723-3.357 22.816-9.453C64.915 52.723 68.271 44.619 68.27 36c.001-8.619-3.356-16.723-9.452-22.819zm-4.967 34.771c.817-3.186 1.319-6.634 1.439-10.245h8.924a27.991 27.991 0 0 1-4.976 14.389c-1.133-1.572-2.984-2.979-5.387-4.144zM41.529 63.731a28.444 28.444 0 0 1-4.324.509V46.491c5.469.126 10.487 1.1 14.28 2.598-2.034 6.847-5.611 12.162-9.956 14.642zM20.517 49.088c3.887-1.535 9.062-2.518 14.688-2.603v17.764a28.364 28.364 0 0 1-4.752-.529c-4.336-2.487-7.905-7.796-9.936-14.632zm-7.746 2.995a28.089 28.089 0 0 1-4.984-14.376h8.925c.121 3.61.623 7.059 1.44 10.244-2.398 1.162-4.247 2.565-5.381 4.132zM7.737 35.707a28.093 28.093 0 0 1 4.631-15.194c1.033 1.756 2.944 3.33 5.519 4.618-.758 3.3-1.18 6.862-1.201 10.576H7.737zm10.976 2h2.607a1 1 0 1 0 0-2h-2.634c.02-3.42.386-6.703 1.046-9.749 4.116 1.66 9.492 2.683 15.474 2.767v6.982H26.32a1 1 0 1 0 0 2h8.885v6.778c-5.857.082-11.133 1.063-15.215 2.664a46.55 46.55 0 0 1-1.277-9.442zM30.452 8.28a28.18 28.18 0 0 1 4.753-.53v18.975c-5.774-.087-11.076-1.119-14.996-2.724 1.966-7.358 5.679-13.104 10.243-15.721zm21.34 15.721c-3.826 1.567-8.972 2.589-14.587 2.718V7.759c1.465.061 2.91.229 4.325.509 4.573 2.611 8.293 8.363 10.262 15.733zM37.205 28.72c5.818-.124 11.043-1.139 15.065-2.762.66 3.046 1.025 6.329 1.046 9.749H37.205V28.72zm0 15.77v-6.783h16.084a46.63 46.63 0 0 1-1.277 9.443c-3.988-1.563-9.113-2.539-14.807-2.66zm18.11-8.783c-.021-3.714-.442-7.276-1.2-10.576 2.583-1.293 4.498-2.873 5.529-4.637 2.955 4.486 4.563 9.725 4.618 15.212h-8.947zm2.998-17.06c-.542 1.676-2.222 3.228-4.702 4.514-1.541-5.514-4.04-10.177-7.153-13.435a28.208 28.208 0 0 1 11.855 8.921zM25.52 9.753c-3.102 3.256-5.591 7.909-7.128 13.408-2.472-1.282-4.149-2.827-4.697-4.497A28.407 28.407 0 0 1 25.52 9.753zM14.034 53.768c.792-1.439 2.421-2.765 4.665-3.879 1.552 5.042 3.919 9.311 6.821 12.357a28.395 28.395 0 0 1-11.486-8.478zm32.423 8.505c2.914-3.049 5.29-7.327 6.846-12.383 2.25 1.117 3.883 2.448 4.672 3.893-.621.763-1.281 1.5-1.986 2.205a28.192 28.192 0 0 1-9.532 6.285z"></path>
</svg>
