<?xml version="1.0" encoding="UTF-8"?>
<svg version="1.1" xmlns="http://www.w3.org/2000/svg" width="512" height="512">
<path d="M0 0 C1.01823853 0.00215515 2.03647705 0.0043103 3.08557129 0.00653076 C17.7097884 0.05623391 32.00304638 0.37042012 46.375 3.3125 C47.37160645 3.50585938 48.36821289 3.69921875 49.39501953 3.8984375 C88.01368568 11.52914208 124.14015454 27.25047736 155.375 51.3125 C156.18710937 51.93253906 156.99921875 52.55257812 157.8359375 53.19140625 C174.90108372 66.51514029 191.26144896 82.13175144 204.10107422 99.59423828 C205.39750666 101.34285682 206.72788718 103.06078803 208.06640625 104.77734375 C215.93067241 114.9920598 222.3161092 125.94975258 228.375 137.3125 C229.03846436 138.55314209 229.03846436 138.55314209 229.71533203 139.81884766 C241.20322768 161.6671797 249.02704784 186.03868426 253.375 210.3125 C253.53581055 211.19824707 253.69662109 212.08399414 253.86230469 212.99658203 C255.96358002 225.09082962 256.6704466 237.11969601 256.75 249.375 C256.76393799 250.66599609 256.77787598 251.95699219 256.79223633 253.28710938 C256.78603271 254.50333984 256.7798291 255.71957031 256.7734375 256.97265625 C256.77005371 258.05168213 256.76666992 259.13070801 256.76318359 260.24243164 C256.05802071 265.81942739 253.19409971 270.28122808 249.375 274.3125 C248.19089539 274.83134262 247.00679077 275.35018524 245.7868042 275.88475037 C243.55095248 277.14248457 242.5696492 277.74308869 241.73069 280.19731331 C241.49139307 282.66595515 241.47818849 285.05169875 241.53613281 287.53149414 C241.53017593 288.46360214 241.52421906 289.39571014 241.51808167 290.35606384 C241.50596825 293.43749519 241.54247594 296.51643948 241.578125 299.59765625 C241.57635804 301.73710181 241.57108186 303.87654712 241.56243896 306.01597595 C241.54716582 311.64906742 241.57106311 317.28126423 241.60565186 322.91424561 C241.65607996 331.93419472 241.65452305 340.95410542 241.63924408 349.9741497 C241.64061157 353.12918201 241.66299521 356.28356735 241.68780518 359.43849182 C241.6912482 361.36662701 241.69410799 363.29476336 241.69628906 365.22290039 C241.71493767 366.54380173 241.71493767 366.54380173 241.73396301 367.89138794 C241.71594296 373.88884475 241.71594296 373.88884475 239.98778915 376.0362463 C237.86873308 377.71312585 236.55243994 377.7142744 233.875 377.6875 C233.1015625 377.69523437 232.328125 377.70296875 231.53125 377.7109375 C228.83337786 377.21241765 228.078586 376.42962438 226.375 374.3125 C226.11161145 371.22432215 226.03067533 368.34057109 226.08544922 365.25463867 C226.0897142 364.32749557 226.09397919 363.40035248 226.09837341 362.44511414 C226.10868412 360.42999965 226.12539423 358.4149102 226.14770126 356.39989281 C226.1798988 353.20953165 226.1886463 350.01993672 226.18997192 346.829422 C226.19558939 337.75792 226.22471089 328.68703862 226.31640625 319.6159668 C226.37080234 314.06840634 226.38150917 308.52220048 226.36426163 302.97442055 C226.36620539 300.86086377 226.38469338 298.74725472 226.42007065 296.63399315 C227.16797818 285.60071648 227.16797818 285.60071648 223.39044189 275.77090454 C221.09120116 274.25972939 218.91145541 273.34115636 216.375 272.3125 C210.42548121 265.50492806 210.14916707 255.59454702 209.9375 247 C208.27559169 205.42517495 193.89025129 166.35457845 169.93066406 132.5546875 C168.59663226 130.63193984 167.35904803 128.68873674 166.1484375 126.6875 C162.35746608 121.0085946 159.18813435 118.88522813 152.63623047 117.51171875 C150.95901649 117.21169214 149.27955736 116.92396177 147.59814453 116.6484375 C136.0462739 114.75357881 127.71102498 108.80220617 118.80859375 101.57641602 C80.68718102 70.86459106 29.31618401 57.61035426 -19.01928711 62.20678711 C-58.53112761 66.6120873 -92.26338631 82.19714851 -123.859375 105.71484375 C-124.79265625 106.40707031 -125.7259375 107.09929687 -126.6875 107.8125 C-127.46222656 108.4003125 -128.23695313 108.988125 -129.03515625 109.59375 C-134.75112064 113.3871502 -139.64244974 115.53080179 -146.47436523 116.32055664 C-153.48894519 117.21013065 -158.87639883 118.52156676 -163.62597656 123.98266602 C-165.62629352 126.61768586 -167.4722265 129.3172158 -169.23779297 132.11474609 C-170.63751382 134.33232566 -172.10769483 136.4867729 -173.59765625 138.64453125 C-195.18126184 170.58812823 -207.4542958 208.17407836 -209.125 246.625 C-210.05398493 267.27898093 -210.05398493 267.27898093 -217.625 274.3125 C-218.8024176 274.81925766 -219.97983521 275.32601532 -221.19293213 275.84812927 C-223.43028237 277.11980165 -224.42847059 277.73801955 -225.27057648 280.19960213 C-225.50861699 282.6672705 -225.52178617 285.05278326 -225.46386719 287.53149414 C-225.46982407 288.46360214 -225.47578094 289.39571014 -225.48191833 290.35606384 C-225.49403175 293.43749519 -225.45752406 296.51643948 -225.421875 299.59765625 C-225.42364196 301.73710181 -225.42891814 303.87654712 -225.43756104 306.01597595 C-225.45283418 311.64906742 -225.42893689 317.28126423 -225.39434814 322.91424561 C-225.34392004 331.93419472 -225.34547695 340.95410542 -225.36075592 349.9741497 C-225.35938843 353.12918201 -225.33700479 356.28356735 -225.31219482 359.43849182 C-225.3087518 361.36662701 -225.30589201 363.29476336 -225.30371094 365.22290039 C-225.29127853 366.10350128 -225.27884613 366.98410217 -225.26603699 367.89138794 C-225.28405704 373.88884475 -225.28405704 373.88884475 -227.01221085 376.0362463 C-229.13126692 377.71312585 -230.44756006 377.7142744 -233.125 377.6875 C-233.8984375 377.69523437 -234.671875 377.70296875 -235.46875 377.7109375 C-238.16662214 377.21241765 -238.921414 376.42962438 -240.625 374.3125 C-240.88838855 371.22432215 -240.96932467 368.34057109 -240.91455078 365.25463867 C-240.9102858 364.32749557 -240.90602081 363.40035248 -240.90162659 362.44511414 C-240.89131588 360.42999965 -240.87460577 358.4149102 -240.85229874 356.39989281 C-240.8201012 353.20953165 -240.8113537 350.01993672 -240.81002808 346.829422 C-240.80441061 337.75792 -240.77528911 328.68703862 -240.68359375 319.6159668 C-240.62919766 314.06840634 -240.61849083 308.52220048 -240.63573837 302.97442055 C-240.63379461 300.86086377 -240.61530662 298.74725472 -240.57992935 296.63399315 C-239.82802287 285.60563891 -239.82802287 285.60563891 -243.60736084 275.7862854 C-245.94632589 274.14662579 -245.94632589 274.14662579 -248.44699097 273.23603821 C-252.13916514 271.67045061 -252.99716908 268.83946699 -254.625 265.3125 C-254.955 264.6525 -255.285 263.9925 -255.625 263.3125 C-259.52135094 200.05583286 -236.11778067 136.92205062 -194.96484375 89.1953125 C-192.25092796 86.16680059 -189.46032474 83.22635653 -186.625 80.3125 C-185.93245117 79.59416992 -185.23990234 78.87583984 -184.52636719 78.13574219 C-174.78805129 68.06884541 -165.02732714 58.47657992 -153.625 50.3125 C-153.08182129 49.9191748 -152.53864258 49.52584961 -151.97900391 49.12060547 C-121.06483319 26.8400395 -86.69185396 11.73917236 -49.375 4.0625 C-48.64442383 3.91127686 -47.91384766 3.76005371 -47.16113281 3.60424805 C-31.46684491 0.57387475 -15.9450952 -0.06071045 0 0 Z " fill="#000000" transform="translate(255.625,-0.3125)"/>
<path d="M0 0 C12.88571855 10.02853279 21.84778658 22.7669927 25 39 C25.17921541 41.69483794 25.27940783 44.28333219 25.26742554 46.97380066 C25.27195665 47.73508799 25.27648776 48.49637533 25.28115618 49.28073198 C25.29372952 51.80985785 25.29218442 54.33876642 25.29052734 56.86791992 C25.29651709 58.69035109 25.30332367 60.51277974 25.31088257 62.33520508 C25.32850623 67.27141085 25.33323647 72.20754723 25.33451414 77.14378142 C25.33593858 80.23281237 25.34021377 83.32182584 25.34550858 86.41085243 C25.36399822 97.20205423 25.37218069 107.99320671 25.37060547 118.78442383 C25.369405 128.81936778 25.3904916 138.85409633 25.4220928 148.88898581 C25.44830874 157.52368397 25.45897051 166.15831202 25.45769465 174.79304963 C25.4571865 179.9415748 25.46278808 185.08990851 25.48405075 190.23839378 C25.50352241 195.08534114 25.50349694 199.93191619 25.48901749 204.77887726 C25.48693919 206.54885469 25.4915713 208.31885597 25.5037384 210.0887928 C25.62241508 228.56222135 21.38889337 243.99662129 8.33984375 257.71875 C-4.80947338 270.5387854 -19.60385585 275.4225233 -37.63208008 275.36572266 C-54.53687097 275.05869571 -68.29044452 268.01031461 -80 256 C-88.37671219 246.97508984 -95 234.51940613 -95 222 C-96.27875 221.814375 -97.5575 221.62875 -98.875 221.4375 C-107.68201475 219.44345892 -113.99201172 213.65343225 -119.4296875 206.69921875 C-124.22630855 198.45428057 -125.58988629 191.23716238 -125.53344727 181.76416016 C-125.54206284 180.58228622 -125.55067841 179.40041229 -125.55955505 178.182724 C-125.5821358 174.30127651 -125.57548952 170.42055573 -125.56640625 166.5390625 C-125.56905334 164.51140246 -125.57424559 162.48375983 -125.57970566 160.45610559 C-125.59664943 154.08849366 -125.59319589 147.72112168 -125.57641602 141.35351562 C-125.55950745 134.8151901 -125.5753236 128.27753289 -125.6076389 121.73928034 C-125.6344535 116.0972745 -125.64157883 110.45547516 -125.63312382 104.81341207 C-125.62822786 101.45610448 -125.63236934 98.09951698 -125.65091133 94.74220657 C-125.66844586 90.99252735 -125.65373738 87.24425318 -125.63110352 83.49462891 C-125.64279572 82.40334183 -125.65448792 81.31205475 -125.66653442 80.18769836 C-125.53127944 69.10362499 -121.83378461 59.89910881 -114.1015625 51.90625 C-108.2693658 46.61607902 -102.76251643 44.2039088 -95 43 C-94.938125 41.783125 -94.87625 40.56625 -94.8125 39.3125 C-93.49661573 27.98522597 -88.20594165 18.62549863 -81 10 C-80.40574219 9.28070313 -79.81148437 8.56140625 -79.19921875 7.8203125 C-59.17181759 -14.22269435 -24.05648192 -16.08531481 0 0 Z " fill="#6360AB" transform="translate(170,237)"/>
<path d="M0 0 C12.76919687 9.93784779 22.06219129 22.8420521 25 39 C25 40.32 25 41.64 25 43 C26.918125 43.2784375 26.918125 43.2784375 28.875 43.5625 C37.53890726 45.49994068 45.16249781 51.64541824 50 59 C54.27471685 67.20402736 55.73238121 74.28045148 55.64697266 83.46289062 C55.65573425 84.64505661 55.66449585 85.8272226 55.67352295 87.04521179 C55.6953582 90.91594183 55.6810191 94.78551028 55.6640625 98.65625 C55.66517935 101.36805123 55.67228538 104.07983248 55.67855835 106.79162598 C55.68761663 112.4603308 55.67576843 118.12870832 55.65185547 123.79736328 C55.62465106 130.32098135 55.63346799 136.8438177 55.6609875 143.36741686 C55.6837876 149.00098809 55.6868259 154.63432606 55.67379415 160.2679286 C55.66605877 163.61847133 55.66679873 166.96835766 55.68147659 170.31892395 C55.6942672 174.05884595 55.6746902 177.79729615 55.64697266 181.53710938 C55.65709381 182.62525436 55.66721497 183.71339935 55.67764282 184.83451843 C55.52669975 195.9053839 51.82467379 205.11030912 44.1015625 213.09375 C38.2693658 218.38392098 32.76251643 220.7960912 25 222 C24.9175 223.093125 24.835 224.18625 24.75 225.3125 C22.83300695 240.05262222 14.42347281 253.73013272 3 263 C-13.21022123 274.10131264 -30.51170812 277.74866994 -49.91796875 274.3046875 C-65.21180451 269.95590266 -78.44802715 260.48660755 -87 247 C-92.01976563 237.57489733 -95.31524043 228.76241505 -95.26742554 218.02619934 C-95.27195665 217.26491201 -95.27648776 216.50362467 -95.28115618 215.71926802 C-95.29372952 213.19014215 -95.29218442 210.66123358 -95.29052734 208.13208008 C-95.29651709 206.30964891 -95.30332367 204.48722026 -95.31088257 202.66479492 C-95.32850623 197.72858915 -95.33323647 192.79245277 -95.33451414 187.85621858 C-95.33593858 184.76718763 -95.34021377 181.67817416 -95.34550858 178.58914757 C-95.36399822 167.79794577 -95.37218069 157.00679329 -95.37060547 146.21557617 C-95.369405 136.18063222 -95.3904916 126.14590367 -95.4220928 116.11101419 C-95.44830874 107.47631603 -95.45897051 98.84168798 -95.45769465 90.20695037 C-95.4571865 85.0584252 -95.46278808 79.91009149 -95.48405075 74.76160622 C-95.50352241 69.91465886 -95.50349694 65.06808381 -95.48901749 60.22112274 C-95.48693919 58.45114531 -95.4915713 56.68114403 -95.5037384 54.9112072 C-95.62241508 36.43777865 -91.38889337 21.00337871 -78.33984375 7.28125 C-57.12005776 -13.40715571 -24.74166717 -16.54346244 0 0 Z " fill="#6360AB" transform="translate(412,237)"/>
<path d="M0 0 C12.76919687 9.93784779 22.06219129 22.8420521 25 39 C25 40.32 25 41.64 25 43 C26.918125 43.2784375 26.918125 43.2784375 28.875 43.5625 C37.53890726 45.49994068 45.16249781 51.64541824 50 59 C54.27471685 67.20402736 55.73238121 74.28045148 55.64697266 83.46289062 C55.65573425 84.64505661 55.66449585 85.8272226 55.67352295 87.04521179 C55.6953582 90.91594183 55.6810191 94.78551028 55.6640625 98.65625 C55.66517935 101.36805123 55.67228538 104.07983248 55.67855835 106.79162598 C55.68761663 112.4603308 55.67576843 118.12870832 55.65185547 123.79736328 C55.62465106 130.32098135 55.63346799 136.8438177 55.6609875 143.36741686 C55.6837876 149.00098809 55.6868259 154.63432606 55.67379415 160.2679286 C55.66605877 163.61847133 55.66679873 166.96835766 55.68147659 170.31892395 C55.6942672 174.05884595 55.6746902 177.79729615 55.64697266 181.53710938 C55.65709381 182.62525436 55.66721497 183.71339935 55.67764282 184.83451843 C55.52669975 195.9053839 51.82467379 205.11030912 44.1015625 213.09375 C38.2693658 218.38392098 32.76251643 220.7960912 25 222 C24.9175 223.093125 24.835 224.18625 24.75 225.3125 C22.83300695 240.05262222 14.42347281 253.73013272 3 263 C-13.21022123 274.10131264 -30.51170812 277.74866994 -49.91796875 274.3046875 C-65.21180451 269.95590266 -78.44802715 260.48660755 -87 247 C-92.01976563 237.57489733 -95.31524043 228.76241505 -95.26742554 218.02619934 C-95.27195665 217.26491201 -95.27648776 216.50362467 -95.28115618 215.71926802 C-95.29372952 213.19014215 -95.29218442 210.66123358 -95.29052734 208.13208008 C-95.29651709 206.30964891 -95.30332367 204.48722026 -95.31088257 202.66479492 C-95.32850623 197.72858915 -95.33323647 192.79245277 -95.33451414 187.85621858 C-95.33593858 184.76718763 -95.34021377 181.67817416 -95.34550858 178.58914757 C-95.36399822 167.79794577 -95.37218069 157.00679329 -95.37060547 146.21557617 C-95.369405 136.18063222 -95.3904916 126.14590367 -95.4220928 116.11101419 C-95.44830874 107.47631603 -95.45897051 98.84168798 -95.45769465 90.20695037 C-95.4571865 85.0584252 -95.46278808 79.91009149 -95.48405075 74.76160622 C-95.50352241 69.91465886 -95.50349694 65.06808381 -95.48901749 60.22112274 C-95.48693919 58.45114531 -95.4915713 56.68114403 -95.5037384 54.9112072 C-95.62241508 36.43777865 -91.38889337 21.00337871 -78.33984375 7.28125 C-57.12005776 -13.40715571 -24.74166717 -16.54346244 0 0 Z M-71.24609375 22.609375 C-77.49350395 31.12477599 -80.23663071 40.19718118 -80.27415466 50.70132446 C-80.27939134 51.43332137 -80.28462802 52.16531827 -80.29002339 52.91949689 C-80.30491337 55.34954558 -80.30572609 57.77938166 -80.30639648 60.20947266 C-80.31402551 61.96131745 -80.32245428 63.71315891 -80.33161926 65.46499634 C-80.35350077 70.20911952 -80.36235488 74.95317827 -80.36744571 79.69734621 C-80.37109751 82.66711844 -80.3773419 85.63687401 -80.3844471 88.60663986 C-80.40892181 98.9840239 -80.42198873 109.36135811 -80.42553711 119.73876953 C-80.42916842 129.38406887 -80.45903994 139.02904925 -80.50094169 148.6742512 C-80.53573552 156.97690903 -80.55108714 165.27946164 -80.55178314 173.58219182 C-80.55257301 178.53127327 -80.56117709 183.48002963 -80.58978081 188.42903519 C-80.61611701 193.08973335 -80.61808068 197.74984053 -80.60212517 202.41057968 C-80.60032284 204.11080473 -80.60689007 205.811065 -80.62294388 207.51121521 C-80.76481284 223.52582286 -77.63870108 236.10025077 -66.125 247.92578125 C-56.39004651 257.091554 -44.97620006 260.60125451 -31.796875 260.375 C-17.9753556 259.00991166 -7.36744354 252.63854367 1.5 242.046875 C3.81060786 238.89385802 5.46449961 235.58283424 7 232 C7.391875 231.154375 7.78375 230.30875 8.1875 229.4375 C10.02012696 223.93961912 10.12800855 218.27428374 10.14717102 212.52609253 C10.15084771 211.80649514 10.1545244 211.08689776 10.1583125 210.34549439 C10.16926222 207.95151355 10.17317823 205.55757624 10.17700195 203.16357422 C10.18327319 201.43981288 10.18992056 199.71605287 10.19691467 197.99229431 C10.21787876 192.34643481 10.22830981 186.70057528 10.23828125 181.0546875 C10.24233165 179.10507315 10.24644865 177.15545895 10.25063133 175.20584488 C10.2696661 166.04403726 10.28390078 156.88223761 10.2922433 147.72041404 C10.30200992 137.17110497 10.32832171 126.62200603 10.36874419 116.07277095 C10.39897454 107.90094261 10.41371872 99.72917429 10.41702431 91.55729115 C10.41936682 86.68483642 10.42822289 81.81260662 10.45348549 76.94021225 C10.47689279 72.35183318 10.48094897 67.76382516 10.47072411 63.17540169 C10.4702317 61.50055896 10.4764639 59.82569715 10.49028015 58.15091133 C10.61228506 42.4722119 8.10429931 29.44816672 -3.171875 17.74609375 C-7.71010668 13.49736996 -12.20433063 10.25932874 -18 8 C-18.73605469 7.70222656 -19.47210938 7.40445313 -20.23046875 7.09765625 C-39.43773293 0.2983474 -58.53983106 7.51587508 -71.24609375 22.609375 Z " fill="#000000" transform="translate(412,237)"/>
<path d="M0 0 C12.88571855 10.02853279 21.84778658 22.7669927 25 39 C25.17921541 41.69483794 25.27940783 44.28333219 25.26742554 46.97380066 C25.27195665 47.73508799 25.27648776 48.49637533 25.28115618 49.28073198 C25.29372952 51.80985785 25.29218442 54.33876642 25.29052734 56.86791992 C25.29651709 58.69035109 25.30332367 60.51277974 25.31088257 62.33520508 C25.32850623 67.27141085 25.33323647 72.20754723 25.33451414 77.14378142 C25.33593858 80.23281237 25.34021377 83.32182584 25.34550858 86.41085243 C25.36399822 97.20205423 25.37218069 107.99320671 25.37060547 118.78442383 C25.369405 128.81936778 25.3904916 138.85409633 25.4220928 148.88898581 C25.44830874 157.52368397 25.45897051 166.15831202 25.45769465 174.79304963 C25.4571865 179.9415748 25.46278808 185.08990851 25.48405075 190.23839378 C25.50352241 195.08534114 25.50349694 199.93191619 25.48901749 204.77887726 C25.48693919 206.54885469 25.4915713 208.31885597 25.5037384 210.0887928 C25.62241508 228.56222135 21.38889337 243.99662129 8.33984375 257.71875 C-4.80947338 270.5387854 -19.60385585 275.4225233 -37.63208008 275.36572266 C-54.53687097 275.05869571 -68.29044452 268.01031461 -80 256 C-88.37671219 246.97508984 -95 234.51940613 -95 222 C-96.27875 221.814375 -97.5575 221.62875 -98.875 221.4375 C-107.68201475 219.44345892 -113.99201172 213.65343225 -119.4296875 206.69921875 C-124.22630855 198.45428057 -125.58988629 191.23716238 -125.53344727 181.76416016 C-125.54206284 180.58228622 -125.55067841 179.40041229 -125.55955505 178.182724 C-125.5821358 174.30127651 -125.57548952 170.42055573 -125.56640625 166.5390625 C-125.56905334 164.51140246 -125.57424559 162.48375983 -125.57970566 160.45610559 C-125.59664943 154.08849366 -125.59319589 147.72112168 -125.57641602 141.35351562 C-125.55950745 134.8151901 -125.5753236 128.27753289 -125.6076389 121.73928034 C-125.6344535 116.0972745 -125.64157883 110.45547516 -125.63312382 104.81341207 C-125.62822786 101.45610448 -125.63236934 98.09951698 -125.65091133 94.74220657 C-125.66844586 90.99252735 -125.65373738 87.24425318 -125.63110352 83.49462891 C-125.64279572 82.40334183 -125.65448792 81.31205475 -125.66653442 80.18769836 C-125.53127944 69.10362499 -121.83378461 59.89910881 -114.1015625 51.90625 C-108.2693658 46.61607902 -102.76251643 44.2039088 -95 43 C-94.938125 41.783125 -94.87625 40.56625 -94.8125 39.3125 C-93.49661573 27.98522597 -88.20594165 18.62549863 -81 10 C-80.40574219 9.28070313 -79.81148437 8.56140625 -79.19921875 7.8203125 C-59.17181759 -14.22269435 -24.05648192 -16.08531481 0 0 Z M-71.24609375 22.609375 C-77.3819249 30.97269051 -79.85705449 39.74535297 -80.75390625 49.921875 C-81.00171802 52.01450769 -81.44646861 53.96886003 -82 56 C-82.83402344 56.07476562 -83.66804688 56.14953125 -84.52734375 56.2265625 C-92.28904655 57.13342812 -98.24252102 58.50640547 -104 64 C-107.52136107 68.55406792 -110.11979921 72.752376 -110.14044189 78.55252075 C-110.14615204 79.51133652 -110.15186218 80.47015228 -110.15774536 81.45802307 C-110.15886322 82.51359909 -110.15998108 83.56917511 -110.16113281 84.65673828 C-110.16609772 85.76584061 -110.17106262 86.87494293 -110.17617798 88.01765442 C-110.1908309 91.70188001 -110.19760793 95.3860625 -110.203125 99.0703125 C-110.20887525 101.62661745 -110.214633 104.18292238 -110.22039795 106.73922729 C-110.2295719 111.42089198 -110.23586764 116.10254369 -110.2388947 120.78421509 C-110.24336755 127.6637634 -110.26087667 134.54311223 -110.2898953 141.42259991 C-110.3141788 147.38770863 -110.32184219 153.35276809 -110.32357025 159.31792831 C-110.32659485 161.85121621 -110.33461683 164.38450331 -110.34775543 166.91775894 C-110.36484749 170.46762331 -110.36292726 174.01700548 -110.35644531 177.56689453 C-110.3656601 178.61032516 -110.37487488 179.6537558 -110.3843689 180.72880554 C-110.33271937 189.77798053 -108.42645712 196.420532 -102 203 C-98.77819141 205.36305474 -98.77819141 205.36305474 -95 206 C-94.99761165 205.33793391 -94.99522329 204.67586782 -94.99276257 203.99373913 C-94.93366283 187.89467934 -94.8581453 171.79579335 -94.76428509 155.69690228 C-94.71929241 147.91163675 -94.67988586 140.12641733 -94.65356445 132.34106445 C-94.63061237 125.55646161 -94.59724587 118.77200424 -94.55129844 111.9875167 C-94.52732828 108.3941438 -94.5086245 104.80091529 -94.50238609 101.20746422 C-94.4952321 97.19889095 -94.46483064 93.19082126 -94.43237305 89.18237305 C-94.43380814 87.9869136 -94.43524323 86.79145416 -94.4367218 85.55976868 C-94.42418365 84.47021881 -94.41164551 83.38066895 -94.39872742 82.25810242 C-94.39411845 81.30957744 -94.38950949 80.36105246 -94.38476086 79.38378429 C-93.93123466 76.57396464 -93.26917459 75.67008659 -91 74 C-88.73828125 73.70703125 -88.73828125 73.70703125 -86.3125 73.8125 C-85.10013672 73.85310547 -85.10013672 73.85310547 -83.86328125 73.89453125 C-83.24839844 73.92933594 -82.63351563 73.96414063 -82 74 C-80.93603867 77.19188399 -80.87529526 79.45501952 -80.87542725 82.8092804 C-80.87158272 84.62781776 -80.87158272 84.62781776 -80.86766052 86.48309326 C-80.86973058 87.82897957 -80.87185333 89.1748658 -80.87402344 90.52075195 C-80.87262852 91.93688513 -80.87072911 93.35301789 -80.86836243 94.76914978 C-80.86386351 97.82206367 -80.86200929 100.87496412 -80.86190033 103.92788124 C-80.8607586 108.76691199 -80.8479073 113.60586667 -80.83233643 118.44487 C-80.82847715 119.67119793 -80.82847715 119.67119793 -80.8245399 120.92230016 C-80.81927293 122.59449583 -80.81398745 124.26669144 -80.80868387 125.938887 C-80.77363356 137.20284033 -80.74701265 148.46670048 -80.74951172 159.73071289 C-80.75110692 167.32924269 -80.73490629 174.92751365 -80.69880509 182.52596062 C-80.68044266 186.54173015 -80.67091566 190.55706818 -80.68328094 194.57287025 C-80.69483111 198.36112377 -80.68275371 202.14860955 -80.65364647 205.93676186 C-80.64398034 207.96652758 -80.65865683 209.99636526 -80.67445374 212.02609253 C-80.51507279 226.34237472 -76.13703425 237.64258774 -66.125 247.92578125 C-56.39004651 257.091554 -44.97620006 260.60125451 -31.796875 260.375 C-17.9753556 259.00991166 -7.36744354 252.63854367 1.5 242.046875 C3.81060786 238.89385802 5.46449961 235.58283424 7 232 C7.391875 231.154375 7.78375 230.30875 8.1875 229.4375 C10.02012696 223.93961912 10.12800855 218.27428374 10.14717102 212.52609253 C10.15084771 211.80649514 10.1545244 211.08689776 10.1583125 210.34549439 C10.16926222 207.95151355 10.17317823 205.55757624 10.17700195 203.16357422 C10.18327319 201.43981288 10.18992056 199.71605287 10.19691467 197.99229431 C10.21787876 192.34643481 10.22830981 186.70057528 10.23828125 181.0546875 C10.24233165 179.10507315 10.24644865 177.15545895 10.25063133 175.20584488 C10.2696661 166.04403726 10.28390078 156.88223761 10.2922433 147.72041404 C10.30200992 137.17110497 10.32832171 126.62200603 10.36874419 116.07277095 C10.39897454 107.90094261 10.41371872 99.72917429 10.41702431 91.55729115 C10.41936682 86.68483642 10.42822289 81.81260662 10.45348549 76.94021225 C10.47689279 72.35183318 10.48094897 67.76382516 10.47072411 63.17540169 C10.4702317 61.50055896 10.4764639 59.82569715 10.49028015 58.15091133 C10.61228506 42.4722119 8.10429931 29.44816672 -3.171875 17.74609375 C-7.71010668 13.49736996 -12.20433063 10.25932874 -18 8 C-18.73605469 7.70222656 -19.47210938 7.40445313 -20.23046875 7.09765625 C-39.43773293 0.2983474 -58.53983106 7.51587508 -71.24609375 22.609375 Z " fill="#000000" transform="translate(170,237)"/>
<path d="M0 0 C14.21313612 -0.28511808 28.15233524 0.29047459 42.25683594 2.06640625 C43.35608398 2.19523193 43.35608398 2.19523193 44.47753906 2.32666016 C89.15228072 7.7427076 131.22939803 29.29011617 165.25683594 58.06640625 C160.39120219 63.90516675 154.30558721 65.71682249 147.25683594 68.06640625 C132.86795834 69.13031114 124.23969118 65.31939012 112.1965332 58.06201172 C98.09961427 49.68866537 82.92476828 43.76715609 67.25683594 39.06640625 C66.01804687 38.68742187 64.77925781 38.3084375 63.50292969 37.91796875 C11.49145894 22.9934259 -45.33314091 30.84764476 -92.74316406 56.06640625 C-95.46353872 57.63981551 -98.13738845 59.28153223 -100.80566406 60.94140625 C-110.87715481 67.15718825 -119.8145106 69.47364541 -131.74316406 68.06640625 C-138.83517082 66.07868117 -143.70933103 63.48255572 -148.74316406 58.06640625 C-107.62582498 22.1666083 -54.56948578 1.32101283 0 0 Z " fill="#57575D" transform="translate(247.7431640625,14.93359375)"/>
<path d="M0 0 C13.4800221 4.69590934 22.59314249 12.45440395 28.95703125 25.3125 C31.34140361 31.45650069 32.2501133 37.04728231 32.25396729 43.62107849 C32.25708727 44.34435257 32.26020725 45.06762664 32.26342177 45.81281811 C32.27133768 48.21310662 32.2651034 50.61313778 32.25878906 53.01342773 C32.2615018 54.74382677 32.26506432 56.47422465 32.26940918 58.20462036 C32.27850247 62.88851481 32.27500138 67.57232083 32.26865101 72.25621676 C32.26357435 77.16740065 32.26828716 82.07857716 32.27142334 86.98976135 C32.27505847 95.23708449 32.27027612 103.48437177 32.26074219 111.73168945 C32.24986213 121.25314664 32.25338179 130.77451814 32.264395 140.29597324 C32.27348508 148.48390065 32.27474463 156.67180234 32.26951766 164.85973316 C32.26640696 169.7442608 32.26596376 174.62874822 32.27259064 179.51327324 C32.27838839 184.10733021 32.27432287 188.70127726 32.26280212 193.29532242 C32.26016835 194.97666937 32.26089859 196.65802564 32.26532745 198.33936882 C32.30474107 214.8284448 30.11388034 228.71825443 18.1171875 240.9140625 C13.32091466 245.33415707 7.78002612 250 1 250 C1.28746094 249.1440625 1.57492187 248.288125 1.87109375 247.40625 C2.96283552 244.11213642 4.02560011 240.8117715 5.0625 237.5 C5.40410156 236.4171875 5.74570312 235.334375 6.09765625 234.21875 C7.72783717 228.40373233 8.14865945 222.85456052 8.14717102 216.83805847 C8.15084771 216.03229962 8.1545244 215.22654077 8.1583125 214.39636499 C8.16929836 211.70458508 8.17318456 209.01284384 8.17700195 206.32104492 C8.1832707 204.38717528 8.18991787 202.45330684 8.19691467 200.5194397 C8.21791731 194.17312451 8.22831696 187.82680921 8.23828125 181.48046875 C8.24233092 179.28980306 8.24644791 177.0991375 8.25063133 174.90847206 C8.26967862 164.60936884 8.28390781 154.31027275 8.2922433 144.01115531 C8.30199915 132.15502476 8.32827749 120.29908173 8.36874419 108.44301718 C8.39900323 99.25969009 8.41372163 90.07641642 8.41702431 80.89304048 C8.41936459 75.41794491 8.42819049 69.94304975 8.45348549 64.46800804 C8.4769415 59.30756116 8.48092968 54.14744413 8.47072411 48.98695755 C8.47023279 47.10577732 8.47643207 45.22457987 8.49028015 43.34345055 C8.55340969 34.24981165 8.2655332 25.57349812 6.22062683 16.68110657 C5.98794333 15.66851156 5.98794333 15.66851156 5.75055915 14.63546008 C4.51813931 9.86795957 2.48016097 6.19078518 0 2 C0 1.34 0 0.68 0 0 Z " fill="#48459C" transform="translate(390,244)"/>
<path d="M0 0 C13.4800221 4.69590934 22.59314249 12.45440395 28.95703125 25.3125 C31.34140361 31.45650069 32.2501133 37.04728231 32.25396729 43.62107849 C32.25708727 44.34435257 32.26020725 45.06762664 32.26342177 45.81281811 C32.27133768 48.21310662 32.2651034 50.61313778 32.25878906 53.01342773 C32.2615018 54.74382677 32.26506432 56.47422465 32.26940918 58.20462036 C32.27850247 62.88851481 32.27500138 67.57232083 32.26865101 72.25621676 C32.26357435 77.16740065 32.26828716 82.07857716 32.27142334 86.98976135 C32.27505847 95.23708449 32.27027612 103.48437177 32.26074219 111.73168945 C32.24986213 121.25314664 32.25338179 130.77451814 32.264395 140.29597324 C32.27348508 148.48390065 32.27474463 156.67180234 32.26951766 164.85973316 C32.26640696 169.7442608 32.26596376 174.62874822 32.27259064 179.51327324 C32.27838839 184.10733021 32.27432287 188.70127726 32.26280212 193.29532242 C32.26016835 194.97666937 32.26089859 196.65802564 32.26532745 198.33936882 C32.30474107 214.8284448 30.11388034 228.71825443 18.1171875 240.9140625 C13.32091466 245.33415707 7.78002612 250 1 250 C1.28746094 249.1440625 1.57492188 248.288125 1.87109375 247.40625 C2.96283552 244.11213642 4.02560011 240.8117715 5.0625 237.5 C5.40410156 236.4171875 5.74570313 235.334375 6.09765625 234.21875 C7.72783717 228.40373233 8.14865945 222.85456052 8.14717102 216.83805847 C8.15084771 216.03229962 8.1545244 215.22654077 8.1583125 214.39636499 C8.16929836 211.70458508 8.17318456 209.01284384 8.17700195 206.32104492 C8.1832707 204.38717528 8.18991787 202.45330684 8.19691467 200.5194397 C8.21791731 194.17312451 8.22831696 187.82680921 8.23828125 181.48046875 C8.24233092 179.28980306 8.24644791 177.0991375 8.25063133 174.90847206 C8.26967862 164.60936884 8.28390781 154.31027275 8.2922433 144.01115531 C8.30199915 132.15502476 8.32827749 120.29908173 8.36874419 108.44301718 C8.39900323 99.25969009 8.41372163 90.07641642 8.41702431 80.89304048 C8.41936459 75.41794491 8.42819049 69.94304975 8.45348549 64.46800804 C8.4769415 59.30756116 8.48092968 54.14744413 8.47072411 48.98695755 C8.47023279 47.10577732 8.47643207 45.22457987 8.49028015 43.34345055 C8.55340969 34.24981165 8.2655332 25.57349812 6.22062683 16.68110657 C5.98794333 15.66851156 5.98794333 15.66851156 5.75055915 14.63546008 C4.51813931 9.86795957 2.48016097 6.19078518 0 2 C0 1.34 0 0.68 0 0 Z " fill="#48459C" transform="translate(148,244)"/>
<path d="M0 0 C3.38891322 0.68886787 6.18011613 1.98716486 9.25 3.5625 C10.14203125 4.01753906 11.0340625 4.47257812 11.953125 4.94140625 C12.96632813 5.46541016 12.96632813 5.46541016 14 6 C11.35542115 10.01353732 8.70214905 14.01383561 5.9140625 17.9296875 C-20.57463092 55.19974385 -34.38198376 98.88293902 -35.62255859 144.52197266 C-35.7450253 148.13083184 -35.90558609 150.98136074 -38 154 C-41.04983996 155.52491998 -43.6423369 155.23562548 -47 155 C-49.10358381 153.45737187 -49.84054159 152.31891683 -51 150 C-54.0288212 97.69458773 -34.00661599 39.80666719 0 0 Z " fill="#B2B1D4" transform="translate(66,108)"/>
<path d="M0 0 C19.89424984 9.80758609 33.19837129 51.52590702 40.1328125 71.5 C47.64965913 93.78918611 51.9970959 117.7220036 52.26171875 141.2734375 C52.30522461 142.59311523 52.30522461 142.59311523 52.34960938 143.93945312 C52.4123586 150.2964325 52.4123586 150.2964325 50.15234375 153.5390625 C46.95429258 155.60305297 44.66808115 155.43424726 40.94921875 154.9609375 C38.84563494 153.41830937 38.10867716 152.27985433 36.94921875 149.9609375 C36.76162065 148.17728707 36.62737548 146.38789968 36.51953125 144.59765625 C36.44839111 143.49413818 36.37725098 142.39062012 36.30395508 141.25366211 C36.1902356 139.46907593 36.1902356 139.46907593 36.07421875 137.6484375 C33.06923128 95.26332637 21.47317206 53.65517343 -4.05078125 18.9609375 C-4.44990723 18.41808105 -4.8490332 17.87522461 -5.26025391 17.31591797 C-7.82454223 13.83909939 -10.42373003 10.39069881 -13.05078125 6.9609375 C-11.67112391 4.20162282 -9.9649751 3.66672616 -7.23828125 2.2734375 C-5.92923828 1.58701172 -5.92923828 1.58701172 -4.59375 0.88671875 C-2.05078125 -0.0390625 -2.05078125 -0.0390625 0 0 Z " fill="#9896C5" transform="translate(445.05078125,108.0390625)"/>
<path d="M0 0 C0 4.62 0 9.24 0 14 C0.99 14.33 1.98 14.66 3 15 C2.43410156 15.12117188 1.86820313 15.24234375 1.28515625 15.3671875 C0.18494141 15.61855469 0.18494141 15.61855469 -0.9375 15.875 C-2.03384766 16.11863281 -2.03384766 16.11863281 -3.15234375 16.3671875 C-5.20700294 16.82961523 -5.20700294 16.82961523 -6 19 C-6.10489818 20.71021381 -6.146574 22.42445965 -6.15821838 24.1378479 C-6.17290161 25.7701107 -6.17290161 25.7701107 -6.18788147 27.43534851 C-6.19363693 28.63440323 -6.1993924 29.83345795 -6.20532227 31.06884766 C-6.22017166 32.95660164 -6.22017166 32.95660164 -6.23532104 34.88249207 C-6.26239767 38.33885454 -6.28339226 41.79523072 -6.30332303 45.2516408 C-6.32516561 48.86182696 -6.35256273 52.47197078 -6.37937927 56.0821228 C-6.42932958 62.92085634 -6.47425971 69.75961334 -6.51740164 76.59839284 C-6.56675406 84.38308322 -6.62167957 92.16773111 -6.67708123 99.95238042 C-6.79093716 115.96821447 -6.89776831 131.98408744 -7 148 C-14.20533633 145.24537225 -17.60169571 141.79660857 -21 135 C-21.93018317 132.02281481 -22.13307519 129.32558822 -22.15390015 126.21369934 C-22.16250061 125.25357941 -22.17110107 124.29345947 -22.17996216 123.304245 C-22.18422211 122.25743057 -22.18848206 121.21061615 -22.19287109 120.13208008 C-22.20104858 119.02429199 -22.20922607 117.91650391 -22.21765137 116.77514648 C-22.24247699 113.10661354 -22.25901445 109.43811924 -22.2734375 105.76953125 C-22.27876118 104.51568823 -22.28408485 103.26184521 -22.28956985 101.97000694 C-22.31079261 96.69846967 -22.32992202 91.42693818 -22.34119225 86.15536976 C-22.35741276 78.6198598 -22.39055501 71.08486689 -22.44759309 63.54955178 C-22.49108476 57.5994075 -22.50694956 51.64937748 -22.51332474 45.69907188 C-22.52003403 43.17495735 -22.53524751 40.65085024 -22.55921555 38.12684059 C-22.59089252 34.58912713 -22.59089912 31.05271109 -22.58349609 27.51489258 C-22.59990143 26.47819931 -22.61630676 25.44150604 -22.63320923 24.37339783 C-22.56577385 16.47570237 -20.50586198 10.48691138 -14.83203125 4.84375 C-14.16558594 4.4003125 -13.49914062 3.956875 -12.8125 3.5 C-12.13832031 3.0359375 -11.46414062 2.571875 -10.76953125 2.09375 C-6.50609015 -0.54148953 -6.20865053 0 0 0 Z " fill="#414146" transform="translate(82,295)"/>
<path d="M0 0 C7.48364543 2.99345817 10.48655144 6.04091405 13.93367004 13.15475082 C15.71743188 17.91429722 15.68084944 22.43961686 15.61523438 27.47314453 C15.62078339 28.5736615 15.6263324 29.67417847 15.63204956 30.80804443 C15.64378341 34.41675458 15.61963536 38.0241917 15.59375 41.6328125 C15.59203739 44.15526268 15.5921061 46.67771465 15.59387207 49.20016479 C15.59222246 54.47391976 15.57417633 59.74735102 15.54199219 65.02099609 C15.50506936 71.10030453 15.49632393 77.17914195 15.5032897 83.2585479 C15.50961409 89.13296991 15.49859075 95.0072284 15.47932434 100.8816185 C15.47230913 103.37023003 15.46916801 105.85885568 15.47001648 108.34747696 C15.46821319 111.8271247 15.4467858 115.30611151 15.41992188 118.78564453 C15.42285248 119.80715607 15.42578308 120.8286676 15.42880249 121.88113403 C15.32231192 130.84864159 13.36551928 137.48292073 7 144 C2.7 147 2.7 147 0 147 C0 98.49 0 49.98 0 0 Z " fill="#414146" transform="translate(437,296)"/>
<path d="M0 0 C3.45201639 1.47721422 5.64961936 3.43794001 8.25 6.125 C8.95640625 6.84945312 9.6628125 7.57390625 10.390625 8.3203125 C10.92171875 8.87460938 11.4528125 9.42890625 12 10 C10.99455004 12.76644036 10.32289168 13.821777 7.70703125 15.265625 C-2.06332576 18.58833751 -12.69860676 20.28756306 -22.4375 16 C-23.64058991 15.36189706 -24.83586854 14.70668143 -26 14 C-22.80140027 11.86760018 -20.0289532 10.97873997 -16.375 9.8125 C-9.86054663 7.55541761 -5.05891634 4.64403167 0 0 Z " fill="#3F3F44" transform="translate(423,84)"/>
<path d="M0 0 C3.04503402 1.52251701 5.55171962 3.0103478 8.3125 4.9375 C14.55413913 9.12918902 20.72801709 11.34147758 28 13 C27 15 27 15 25.2421875 15.8515625 C14.83901656 19.25061835 4.01471483 19.55394998 -6.14453125 15.265625 C-8 14 -8 14 -10 10 C-6.7 6.7 -3.4 3.4 0 0 Z " fill="#3F3F44" transform="translate(87,84)"/>
<path d="M0 0 C0.33 0 0.66 0 1 0 C1.66301795 17.48402878 1.66301795 17.48402878 -4.375 25.3125 C-6.81765261 27.81331101 -8.86984842 29.47722356 -12 31 C-12.66 31 -13.32 31 -14 31 C-14 23.74 -14 16.48 -14 9 C-11.64875 7.88625 -11.64875 7.88625 -9.25 6.75 C-5.53212465 4.90420898 -2.72424117 3.19802224 0 0 Z " fill="#2B2B2E" transform="translate(451,412)"/>
<path d="M0 0 C0.49628906 0.39832031 0.99257813 0.79664063 1.50390625 1.20703125 C2.18324219 1.73683594 2.86257812 2.26664062 3.5625 2.8125 C4.22378906 3.33457031 4.88507813 3.85664063 5.56640625 4.39453125 C8.61288489 6.50755896 8.61288489 6.50755896 15 9 C15 16.26 15 23.52 15 31 C7.60616643 28.04246657 4.47275484 24.94550967 1 18 C-0.27427009 14.28406399 -0.09860066 10.64887103 -0.0625 6.75 C-0.05347656 5.48671875 -0.04445312 4.2234375 -0.03515625 2.921875 C-0.02355469 1.95765625 -0.01195312 0.9934375 0 0 Z " fill="#2B2B2E" transform="translate(60,412)"/>
</svg>
