<?xml version="1.0" encoding="UTF-8"?>
<svg version="1.1" xmlns="http://www.w3.org/2000/svg" width="512" height="512">
<path d="M0 0 C3.10075604 2.24789844 6.18162111 4.52185815 9.2578125 6.80322266 C13.01135852 9.57611251 16.80102907 12.29847299 20.58837891 15.02490234 C22.08856356 16.10797996 23.58856336 17.19131367 25.08837891 18.27490234 C26.20212891 19.07927734 26.20212891 19.07927734 27.33837891 19.89990234 C53.58837891 38.85823568 79.83837891 57.81656901 106.08837891 76.77490234 C107.20237061 77.57939819 107.20237061 77.57939819 108.33886719 78.40014648 C109.83737697 79.48247583 111.3357496 80.56499508 112.83398438 81.64770508 C116.60567742 84.37298079 120.37976868 87.09481471 124.15869141 89.81005859 C127.91218099 92.50838093 131.65830864 95.21659885 135.39794922 97.93408203 C136.85405598 98.99159336 138.31173247 100.04694677 139.77099609 101.10009766 C157.08608843 113.62507374 170.10965898 125.76090973 174.58837891 147.52490234 C175.41721855 154.14406362 175.26473692 160.82031572 175.21948242 167.47851562 C175.22463362 169.42858528 175.23192387 171.37865027 175.24116516 173.32870483 C175.25953206 178.57664259 175.24683526 183.82406617 175.22707486 189.07198191 C175.21056925 194.59070742 175.21951749 200.10940341 175.22459412 205.62814331 C175.22910108 214.88954793 175.21333024 224.15074965 175.18530273 233.41210938 C175.15323838 244.08910559 175.15327862 254.76573647 175.1705175 265.44275868 C175.18642969 275.75629726 175.17962011 286.06970309 175.16258049 296.38323593 C175.15574379 300.75370739 175.15670743 305.12407135 175.16412544 309.49454117 C175.17183685 314.64778798 175.15950487 319.80062334 175.13227654 324.9538002 C175.12544299 326.83461283 175.12524004 328.71546427 175.13249207 330.59627533 C175.20006194 350.41750653 171.0437027 366.43347997 156.96337891 381.27490234 C144.12102644 393.44134152 128.95328546 397.83538264 111.65820312 397.79956055 C110.37920135 397.80467148 109.10019958 397.80978241 107.78244019 397.81504822 C104.29498953 397.82836662 100.80764771 397.82902529 97.3201766 397.82648492 C94.40255659 397.82541104 91.48495823 397.83030884 88.56734288 397.83509034 C81.6842015 397.8461592 74.80111471 397.84663673 67.91796875 397.84057617 C60.82646715 397.83452817 53.73516354 397.84687424 46.64369571 397.86814624 C40.54241674 397.88577229 34.44120076 397.89176231 28.33989727 397.8885085 C24.70124295 397.88669822 21.06273013 397.8893068 17.42409897 397.90322304 C13.36919049 397.91815381 9.31468496 397.90882259 5.25976562 397.8972168 C4.05960815 397.90486053 2.85945068 397.91250427 1.6229248 397.92037964 C-5.76506349 397.87358195 -10.35485023 397.15514704 -16.09912109 392.21240234 C-22.15230731 385.17761836 -22.56199364 378.02265443 -22.53759766 369.07617188 C-22.54039986 367.83592255 -22.54039986 367.83592255 -22.54325867 366.57061768 C-22.54724777 364.78314651 -22.54933613 362.9956703 -22.54972076 361.20819473 C-22.55315477 357.40003703 -22.57453759 353.59204726 -22.59495163 349.7839489 C-22.63288027 342.70327314 -22.66423565 335.62278135 -22.66210938 328.54199219 C-22.66132082 323.60704708 -22.68474237 318.67272425 -22.72399139 313.73794174 C-22.73442625 311.86338984 -22.73599402 309.98876591 -22.72834015 308.11420059 C-22.71867872 305.4862597 -22.73997204 302.86019373 -22.76806641 300.23242188 C-22.75786972 299.46644684 -22.74767303 298.7004718 -22.73716736 297.9112854 C-22.84808197 292.09450206 -24.69572209 288.00630872 -28.41162109 283.52490234 C-32.74531855 280.00192685 -37.76113317 278.10035763 -43.41162109 278.52490234 C-49.42667422 280.06722366 -54.11635271 282.03278837 -57.41162109 287.52490234 C-57.76663696 288.06722 -58.12165283 288.60953766 -58.48742676 289.16828918 C-59.84715983 292.6354873 -59.70337772 296.05966648 -59.69873047 299.73071289 C-59.70556351 300.55564743 -59.71239655 301.38058197 -59.71943665 302.23051453 C-59.7330139 304.02017688 -59.74207409 305.80987792 -59.74714661 307.59958458 C-59.75544804 310.43793021 -59.77596746 313.275956 -59.79968262 316.11421204 C-59.84790105 322.14689448 -59.88080789 328.17960921 -59.91162109 334.21240234 C-59.9473638 341.18807191 -59.98946911 348.16358641 -60.04756165 355.13910866 C-60.06751694 357.92468512 -60.07592868 360.71014056 -60.0838623 363.49577332 C-60.09684766 365.22122626 -60.11036985 366.94667528 -60.12451172 368.67211914 C-60.12303886 369.82040192 -60.12303886 369.82040192 -60.12153625 370.99188232 C-60.21128052 378.91291944 -61.19038733 386.28842868 -66.41162109 392.52490234 C-71.23600171 396.16780199 -74.69370307 397.64517207 -80.68940735 397.67207336 C-82.33124748 397.68280632 -82.33124748 397.68280632 -84.0062561 397.6937561 C-85.20777313 397.69644501 -86.40929016 397.69913391 -87.6472168 397.7019043 C-88.91263809 397.70847549 -90.17805939 397.71504669 -91.48182678 397.72181702 C-95.68367242 397.74285287 -99.88551836 397.7532267 -104.08740234 397.76318359 C-105.53798122 397.76723291 -106.98855991 397.77134989 -108.43913841 397.77553368 C-115.26285524 397.79459322 -122.08656127 397.80881628 -128.9102996 397.81714565 C-136.75991788 397.82688721 -144.60925184 397.85312222 -152.4587701 397.89364654 C-158.54053002 397.92395397 -164.62220921 397.93862873 -170.70404309 397.94192666 C-174.32856853 397.94426278 -177.95279059 397.95303136 -181.57723427 397.97838783 C-185.63589484 398.00632035 -189.69393453 398.00179319 -193.75268555 397.99487305 C-194.93193604 398.00768311 -196.11118652 398.02049316 -197.32617188 398.03369141 C-214.40422115 397.92833502 -228.82442014 391.60442632 -241.16162109 379.89990234 C-251.70801569 368.76759694 -257.74271633 354.39360586 -257.67904663 339.05757141 C-257.68357774 338.2431979 -257.68810886 337.42882438 -257.69277728 336.58977288 C-257.70536286 333.88099737 -257.7038047 331.17242443 -257.70214844 328.46362305 C-257.70813741 326.51311487 -257.7149438 324.56260905 -257.72250366 322.61210632 C-257.74013503 317.32673904 -257.74485789 312.04143657 -257.74613523 306.75604272 C-257.74755921 303.44924961 -257.75183353 300.14247286 -257.75712967 296.83568382 C-257.77562171 285.28587172 -257.78380147 273.73610571 -257.78222656 262.1862793 C-257.78102596 251.44243083 -257.80211463 240.69878351 -257.83371389 229.95498592 C-257.85992127 220.71307477 -257.87059196 211.47122912 -257.86931574 202.22928113 C-257.86880735 196.71746727 -257.87442247 191.2058322 -257.89567184 185.69405556 C-257.91512899 180.50567326 -257.91512772 175.31763889 -257.90063858 170.12924385 C-257.89855852 168.23348732 -257.90320305 166.33770859 -257.9153595 164.4419899 C-258.02473344 146.19231796 -254.76465205 130.55734014 -241.77099609 116.88427734 C-233.77290611 108.88618736 -224.97007195 102.56659928 -215.70849609 96.13232422 C-211.93445215 93.4911353 -208.20406062 90.79035732 -204.47412109 88.08740234 C-203.728479 87.54768799 -202.98283691 87.00797363 -202.21459961 86.4519043 C-200.7021032 85.35689532 -199.1898149 84.26159882 -197.67773438 83.16601562 C-193.9251731 80.44842061 -190.1681869 77.73695762 -186.41162109 75.02490234 C-184.91159963 73.94159873 -183.41159964 72.85826539 -181.91162109 71.77490234 C-160.91162109 56.60823568 -139.91162109 41.44156901 -118.91162109 26.27490234 C-118.16895996 25.73849121 -117.42629883 25.20208008 -116.66113281 24.64941406 C-115.1629321 23.56747055 -113.66456001 22.48576433 -112.16601562 21.40429688 C-108.38703683 18.67663146 -104.61123996 15.94474909 -100.84130859 13.20458984 C-96.37645756 9.96159249 -91.89819868 6.7377609 -87.41162109 3.52490234 C-86.6966748 3.01088867 -85.98172852 2.496875 -85.24511719 1.96728516 C-57.19125348 -18.12161748 -28.93710641 -20.65117887 0 0 Z M-58.41162109 33.52490234 C-59.76212107 34.49564837 -61.11517449 35.462848 -62.47021484 36.42724609 C-66.34756727 39.19513319 -70.20066086 41.99495144 -74.04882812 44.80322266 C-77.82728754 47.55644603 -81.61991426 50.2899686 -85.41162109 53.02490234 C-86.91169411 54.10813457 -88.411694 55.19146807 -89.91162109 56.27490234 C-170.91162109 114.77490234 -170.91162109 114.77490234 -173.16381836 116.40136719 C-174.65664882 117.47960359 -176.14932582 118.55805249 -177.6418457 119.63671875 C-181.50027806 122.42483976 -185.3616902 125.20868862 -189.22802734 127.98583984 C-193.00442769 130.6992249 -196.77107568 133.42561782 -200.53076172 136.16210938 C-202.13422896 137.32391547 -203.7484104 138.47091065 -205.36474609 139.61474609 C-206.14333984 140.18322266 -206.92193359 140.75169922 -207.72412109 141.33740234 C-208.33900391 141.77697266 -208.95388672 142.21654297 -209.58740234 142.66943359 C-217.85307535 151.07670272 -217.11423583 159.71556334 -217.02685547 170.77929688 C-217.03035927 172.6426443 -217.03602077 174.50598872 -217.04367065 176.36932373 C-217.05788899 181.41474624 -217.04088715 186.45962184 -217.01738548 191.50499201 C-216.99724563 196.78993662 -217.00315757 202.07485921 -217.00549316 207.35983276 C-217.00543964 216.23184201 -216.98570638 225.10363798 -216.95361328 233.97558594 C-216.91669972 244.22991536 -216.90794133 254.4839657 -216.91491079 264.73835289 C-216.921217 274.60979548 -216.91046076 284.48114247 -216.89094543 294.35256577 C-216.88277504 298.55099729 -216.88006122 302.74937994 -216.88163757 306.94781876 C-216.88251686 311.89076716 -216.86828841 316.83345056 -216.84241104 321.77632904 C-216.8352529 323.58954204 -216.83316392 325.40278323 -216.83652878 327.21600723 C-216.84024746 329.69231623 -216.82548314 332.16785348 -216.80603027 334.64407349 C-216.8113582 335.36041966 -216.81668612 336.07676583 -216.8221755 336.81481946 C-216.74069401 342.83245293 -214.98517735 346.6961748 -211.09912109 351.21240234 C-205.06544112 356.40417349 -200.10834916 356.95488033 -192.45898438 356.86547852 C-191.47299759 356.8659166 -190.4870108 356.86635468 -189.47114563 356.86680603 C-186.22453752 356.86472239 -182.97845108 356.84141093 -179.73193359 356.81787109 C-177.47606692 356.81227364 -175.22019658 356.80800425 -172.96432495 356.80500793 C-167.03607051 356.79357099 -161.10803768 356.76411344 -155.17987061 356.730896 C-149.12694293 356.70017047 -143.07397933 356.68649728 -137.02099609 356.67138672 C-125.15110723 356.63924285 -113.28138262 356.5880602 -101.41162109 356.52490234 C-101.40797546 355.67680496 -101.40432983 354.82870758 -101.40057373 353.95491028 C-101.36249264 345.90900093 -101.30541491 337.86348867 -101.22771835 329.8178606 C-101.18843716 325.68283968 -101.15615495 321.54802554 -101.140625 317.4128418 C-101.12532929 313.41196857 -101.09066039 309.41166462 -101.04331207 305.41104698 C-101.02862988 303.89511795 -101.02058776 302.37910758 -101.01973724 300.86310768 C-100.99962602 282.96802576 -96.18227972 267.91700377 -83.69677734 254.74365234 C-71.4533615 242.85602807 -56.34480103 237.54305152 -39.41162109 237.52490234 C-22.30359635 238.56004135 -7.79941945 245.16274618 4.03369141 257.61865234 C15.12229263 271.21472621 17.8726474 285.58619732 18.00244141 302.61865234 C18.02117624 304.17664591 18.04075134 305.73462957 18.06112671 307.29260254 C18.11220963 311.36952854 18.15196204 315.44648735 18.18927002 319.52355957 C18.22946012 323.69335894 18.2804836 327.86302464 18.33056641 332.03271484 C18.42704297 340.19668564 18.5115371 348.36072323 18.58837891 356.52490234 C31.65348489 356.59442051 44.71854684 356.647723 57.78380013 356.68033886 C63.85056213 356.69599302 69.91719756 356.71722707 75.98388672 356.7512207 C81.83884805 356.78382255 87.69368766 356.80175723 93.54873276 356.80953407 C95.78224478 356.81507606 98.01575017 356.82589815 100.24921036 356.84209251 C103.37820064 356.86387737 106.50668824 356.86686877 109.63574219 356.86547852 C110.55859512 356.87626434 111.48144806 356.88705017 112.43226624 356.89816284 C119.02013612 356.86650098 123.17231967 355.60383703 128.27587891 351.21240234 C132.77599966 345.98253228 134.03328778 341.43381927 133.98278809 334.64407349 C133.99192474 333.48103803 133.99192474 333.48103803 134.00124598 332.29450691 C134.01784608 329.7059531 134.01310452 327.11789281 134.00830078 324.52929688 C134.01564287 322.66948944 134.0242295 320.80968657 134.03396606 318.94989014 C134.05617639 313.90437426 134.05911297 308.85902173 134.05721855 303.81346369 C134.05709883 299.59878525 134.06566387 295.38414139 134.07399607 291.16947258 C134.09322852 281.22461188 134.09611457 271.27983513 134.08935547 261.33496094 C134.08271495 251.08177864 134.10557993 240.82895612 134.1426692 230.57584679 C134.17337517 221.76716004 134.18472524 212.95858897 134.18083239 204.14984977 C134.17876578 198.89131513 134.18423061 193.63306045 134.20872498 188.37457657 C134.23100419 183.42828306 134.22910437 178.48257406 134.20879745 173.53627777 C134.20538947 171.72388886 134.21046737 169.9114605 134.22478104 168.09912491 C134.30196189 157.60003753 134.28205298 150.30419557 126.51025391 142.41552734 C125.79353516 141.87412109 125.07681641 141.33271484 124.33837891 140.77490234 C123.46697266 140.11361328 122.59556641 139.45232422 121.69775391 138.77099609 C116.5434796 135.04774518 111.35698646 131.37282529 106.14697266 127.72802734 C101.61829676 124.55552727 97.12966341 121.32983537 92.65087891 118.08740234 C91.90515625 117.54768799 91.15943359 117.00797363 90.39111328 116.4519043 C88.87872625 115.35685663 87.36651934 114.26156015 85.85449219 113.16601562 C82.10193091 110.44842061 78.34494471 107.73695762 74.58837891 105.02490234 C73.08835744 103.94159873 71.58835745 102.85826539 70.08837891 101.77490234 C69.34587891 101.23865234 68.60337891 100.70240234 67.83837891 100.14990234 C7.08837891 56.27490234 7.08837891 56.27490234 4.83666992 54.6484375 C3.34265854 53.5695825 1.84835694 52.49112926 0.35375977 51.41308594 C-3.49039342 48.63952543 -7.32863512 45.85830657 -11.15771484 43.06396484 C-14.91078916 40.3265881 -18.68217398 37.616412 -22.46679688 34.92285156 C-24.18262364 33.68950684 -25.87524253 32.42401237 -27.56396484 31.15380859 C-33.11687799 27.19427081 -37.56309121 25.37922569 -44.46630859 25.86474609 C-50.010029 27.10730412 -53.92802077 30.1524793 -58.41162109 33.52490234 Z " fill="#000000" transform="translate(297.41162109375,114.47509765625)"/>
<path d="M0 0 C1.03511719 0.42925781 2.07023437 0.85851562 3.13671875 1.30078125 C12.8394111 5.75937306 21.16198905 11.90533271 29.68554688 18.27832031 C33.42654078 21.06117781 37.21473096 23.77785588 41 26.5 C42.49895993 27.58166825 43.99765756 28.66370008 45.49609375 29.74609375 C46.23843262 30.28218262 46.98077148 30.81827148 47.74560547 31.37060547 C50.00994999 33.00719149 52.27273581 34.64591165 54.53515625 36.28515625 C61.82747964 41.56580422 69.1361012 46.8195134 76.5 52 C86.15508101 58.79232824 95.7120552 65.71819915 105.27050781 72.64550781 C113.31628773 78.47462861 121.37384972 84.28327116 129.5 90 C139.15508101 96.79232824 148.7120552 103.71819915 158.27050781 110.64550781 C166.31628773 116.47462861 174.37384972 122.28327116 182.5 128 C189.84771909 133.16910421 197.14147259 138.40940296 204.4140625 143.68359375 C207.5857382 145.98261375 210.76923911 148.26402006 213.9609375 150.53515625 C214.77312744 151.11531494 215.58531738 151.69547363 216.42211914 152.29321289 C217.9707488 153.39897021 219.52187018 154.50124949 221.07592773 155.59936523 C226.67457628 159.6073793 231.99210245 163.6274991 235 170 C235.92634293 176.02894855 236.04294043 182.13493959 232.875 187.5 C228.93181852 192.76498034 224.56604375 196.52599018 218 198 C205.57916011 199.67203614 194.66263055 188.5906336 185.33154297 181.70654297 C181.7551714 179.08886368 178.12900159 176.54394622 174.5 174 C164.84368963 167.20946224 155.28791131 160.28177659 145.72949219 153.35449219 C137.68371227 147.52537139 129.62615028 141.71672884 121.5 136 C111.84491899 129.20767176 102.2879448 122.28180085 92.72949219 115.35449219 C84.68371227 109.52537139 76.62615028 103.71672884 68.5 98 C60.37815439 92.28629949 52.32506432 86.48052528 44.28369141 80.65429688 C40.44120888 77.87081798 36.5959003 75.09125401 32.75 72.3125 C31.99726807 71.76859619 31.24453613 71.22469238 30.46899414 70.66430664 C25.43870174 67.03214205 20.39857536 63.41419835 15.34033203 59.82104492 C12.01108281 57.45213758 8.70545145 55.05411102 5.4140625 52.6328125 C4.22296875 51.76076172 4.22296875 51.76076172 3.0078125 50.87109375 C1.46511294 49.74062374 -0.07418964 48.60549721 -1.609375 47.46484375 C-10.4673588 40.83296149 -10.4673588 40.83296149 -21 38.5 C-21.763125 38.4896875 -22.52625 38.479375 -23.3125 38.46875 C-30.87203448 39.96307658 -36.93417395 44.9376223 -42.9375 49.5 C-44.62133417 50.760534 -46.30625119 52.01962269 -47.9921875 53.27734375 C-48.83233398 53.90495605 -49.67248047 54.53256836 -50.53808594 55.17919922 C-54.17155156 57.86646485 -57.86090908 60.4702557 -61.5625 63.0625 C-67.38407142 67.14696773 -73.17560189 71.26921243 -78.9375 75.4375 C-79.68322266 75.97697266 -80.42894531 76.51644531 -81.19726562 77.07226562 C-83.46535689 78.7141367 -85.73280428 80.35689256 -88 82 C-97.49766801 88.88325617 -107.01432033 95.73384082 -116.60791016 102.48291016 C-124.79186072 108.24814524 -132.894291 114.12553993 -141 120 C-150.49766801 126.88325617 -160.01432033 133.73384082 -169.60791016 140.48291016 C-177.79186072 146.24814524 -185.894291 152.12553993 -194 158 C-204.20521932 165.39604067 -214.43080378 172.75798991 -224.74609375 180 C-227.71151576 182.08399632 -230.65893906 184.19102253 -233.59765625 186.3125 C-234.35554443 186.85640381 -235.11343262 187.40030762 -235.89428711 187.96069336 C-237.33509976 188.99529682 -238.77238524 190.03483823 -240.20532227 191.08032227 C-245.97733442 195.20946015 -251.56282283 198.68700145 -258.95703125 198.34375 C-265.43845202 197.25318589 -269.71789041 193.76572128 -273.7734375 188.78125 C-276.60471829 184.66958108 -277.31571706 181.73247832 -277.375 176.6875 C-277.40335937 175.59824219 -277.43171875 174.50898438 -277.4609375 173.38671875 C-276.60294572 167.08266047 -273.92136117 163.48682998 -269.05078125 159.67578125 C-267.48133336 158.54075948 -265.90128745 157.42028859 -264.3125 156.3125 C-263.04708374 155.40576538 -263.04708374 155.40576538 -261.75610352 154.48071289 C-259.18025845 152.63992782 -256.59173486 150.81832191 -254 149 C-252.53336169 147.96163275 -251.06718751 146.9226095 -249.6015625 145.8828125 C-246.81962833 143.91276215 -244.03244745 141.95042381 -241.2421875 139.9921875 C-236.82323366 136.88437435 -232.4395553 133.72896092 -228.0625 130.5625 C-227.31677734 130.02302734 -226.57105469 129.48355469 -225.80273438 128.92773438 C-223.53464311 127.2858633 -221.26719572 125.64310744 -219 124 C-209.50233199 117.11674383 -199.98567967 110.26615918 -190.39208984 103.51708984 C-182.20813928 97.75185476 -174.105709 91.87446007 -166 86 C-156.50233199 79.11674383 -146.98567967 72.26615918 -137.39208984 65.51708984 C-129.20813928 59.75185476 -121.105709 53.87446007 -113 48 C-103.50784478 41.12073912 -94.00063792 34.26821144 -84.4074707 27.53027344 C-79.8964229 24.35635614 -75.42181989 21.13637105 -70.96362305 17.88867188 C-50.21772821 2.79759815 -26.17200085 -10.86903184 0 0 Z " fill="#000000" transform="translate(277,3)"/>
</svg>
