<?xml version="1.0" encoding="UTF-8"?>
<svg version="1.1" xmlns="http://www.w3.org/2000/svg" width="512" height="512">
<path d="M0 0 C4.10424973 3.10140138 6.36334429 6.84586851 7.78051758 11.78295898 C8.20038098 15.81409841 8.15992071 19.81895716 8.12109375 23.86865234 C8.12153183 25.06936371 8.12196991 26.27007507 8.12242126 27.50717163 C8.12069574 30.78160191 8.10570412 34.05564198 8.08469939 37.32999492 C8.06587963 40.75859919 8.064178 44.18721203 8.06062317 47.61585999 C8.05131819 54.10036372 8.02672557 60.58471479 7.9965747 67.06915146 C7.96298231 74.45488323 7.94653255 81.84062249 7.93148839 89.2264117 C7.90017448 104.41201236 7.84744434 119.59747037 7.78051758 134.78295898 C9.66710083 135.00121338 9.66710083 135.00121338 11.59179688 135.22387695 C24.32390828 136.69682508 37.7056129 144.94693821 45.78051758 154.78295898 C56.36329682 168.26121925 60.67229189 183.12473134 59.55786133 200.19311523 C57.74296723 214.97657302 50.50781284 230.28178435 38.78051758 239.78295898 C29.22889147 246.77638413 19.52854308 251.42385745 7.78051758 252.78295898 C7.78420475 253.40949371 7.78789192 254.03602844 7.79169083 254.68154907 C7.88014392 269.94769131 7.94627665 285.21375458 7.98776627 300.48008728 C8.00836521 307.86287659 8.03643441 315.24549453 8.08227539 322.62817383 C8.12222531 329.06518294 8.14796978 335.5020679 8.15687156 341.93919754 C8.16207263 345.34562811 8.17424036 348.75170359 8.20343781 352.15802002 C8.23250921 355.96680687 8.23647181 359.77486013 8.23461914 363.58374023 C8.2561908 365.26580818 8.2561908 365.26580818 8.27819824 366.9818573 C8.24436625 373.41727894 7.59276323 378.45394308 3.78051758 383.78295898 C-0.81339611 388.04873598 -3.92452893 389.26662762 -10.08569336 389.19799805 C-15.99682042 388.41512831 -21.35394523 385.92876783 -26.77905273 383.55834961 C-28.8389843 382.6603558 -30.91020226 381.79414087 -32.98510742 380.93139648 C-51.05772255 373.29164187 -51.05772255 373.29164187 -54.15698242 365.72045898 C-54.82750706 363.5490249 -55.23128521 361.64209527 -55.42163086 359.37036133 C-56.53566388 355.75759452 -58.17900111 355.15391719 -61.45776367 353.35717773 C-62.57465576 352.73327148 -63.69154785 352.10936523 -64.84228516 351.46655273 C-66.0721167 350.80106331 -67.30201759 350.13570202 -68.53198242 349.47045898 C-69.79347766 348.77173549 -71.05396302 348.07118588 -72.31347656 347.36889648 C-74.94456055 345.90381511 -77.57987398 344.44680218 -80.21850586 342.99536133 C-85.97367605 339.82237936 -91.67870381 336.56199555 -97.38217163 333.29727173 C-99.0991735 332.31599706 -100.81907038 331.33979336 -102.5390625 330.36376953 C-104.69174548 329.13805 -106.83914762 327.90300139 -108.98071289 326.65795898 C-111.26024787 325.33828247 -113.54553912 324.05147934 -115.8527832 322.78295898 C-117.03934486 322.10679875 -118.22539546 321.42974076 -119.41088867 320.75170898 C-120.47637939 320.1580957 -121.54187012 319.56448242 -122.63964844 318.95288086 C-125.95694911 316.16266903 -126.52600669 314.0069934 -127.21948242 309.78295898 C-125.69549467 306.17351431 -124.50323344 304.97212633 -121.21948242 302.78295898 C-116.20086681 303.06277455 -112.69815405 304.28876968 -108.39526367 306.81811523 C-107.29682129 307.45547607 -106.19837891 308.09283691 -105.06665039 308.74951172 C-103.88835551 309.448039 -102.7101346 310.14669106 -101.53198242 310.84545898 C-100.30758482 311.56028248 -99.0824744 312.27388627 -97.85668945 312.98632812 C-95.29239125 314.47797668 -92.73128721 315.97491027 -90.17211914 317.4753418 C-84.29394175 320.91516817 -78.37547837 324.28456165 -72.45858765 327.65719604 C-70.61530397 328.70858263 -68.77327699 329.76213728 -66.93164062 330.81640625 C-65.81748779 331.45376709 -64.70333496 332.09112793 -63.55541992 332.74780273 C-62.57105957 333.31104248 -61.58669922 333.87428223 -60.57250977 334.45458984 C-59.13954782 335.26354875 -57.69129612 336.04705214 -56.21948242 336.78295898 C-56.21589989 335.95635049 -56.21589989 335.95635049 -56.21224499 335.11304283 C-56.15305696 321.69172946 -56.07729465 308.27059728 -55.98376751 294.84947777 C-55.9390377 288.35905574 -55.89978709 281.86869688 -55.87304688 275.37817383 C-55.84704032 269.11461135 -55.80665607 262.85129155 -55.75629616 256.58787918 C-55.73960964 254.19811649 -55.72810651 251.8083118 -55.72186852 249.41849899 C-55.71224716 246.07146505 -55.68421009 242.72505451 -55.65185547 239.37817383 C-55.65329056 238.38986572 -55.65472565 237.40155762 -55.65620422 236.38330078 C-55.58428547 231.12352691 -55.22913603 227.30371878 -52.21948242 222.78295898 C-49.12774491 221.23709023 -46.6251869 221.48936377 -43.21948242 221.78295898 C-40.53657656 223.8268394 -39.36816314 225.02612354 -38.71167374 228.36787796 C-38.70798656 229.35235287 -38.70429939 230.33682777 -38.70050049 231.35113525 C-38.68658768 232.48413055 -38.67267487 233.61712585 -38.65834045 234.78445435 C-38.66337082 236.0230722 -38.66840118 237.26169006 -38.67358398 238.5378418 C-38.66324631 239.84540436 -38.65290863 241.15296692 -38.64225769 242.50015259 C-38.61438451 246.08253024 -38.61099327 249.66456277 -38.61197758 253.24703312 C-38.60884956 256.99205833 -38.58323375 260.73692785 -38.55999756 264.48187256 C-38.5194253 271.57201393 -38.49909403 278.6620633 -38.48602366 285.75230289 C-38.47015772 293.82487599 -38.43174387 301.89729245 -38.39143038 309.96977472 C-38.3090146 326.57414688 -38.25790966 343.17841791 -38.21948242 359.78295898 C-28.64948242 363.74295898 -19.07948242 367.70295898 -9.21948242 371.78295898 C-9.21948242 254.30295898 -9.21948242 136.82295898 -9.21948242 15.78295898 C-18.78948242 19.74295898 -28.35948242 23.70295898 -38.21948242 27.78295898 C-38.22359131 32.91181641 -38.2277002 38.04067383 -38.23193359 43.32495117 C-38.24910452 60.24053357 -38.29330862 77.15596466 -38.35157299 94.07145309 C-38.38624659 104.3307814 -38.41158162 114.58997501 -38.41503906 124.84936523 C-38.41807566 133.79002182 -38.43852511 142.73043867 -38.48000699 151.67100263 C-38.50136638 156.40634319 -38.51392257 161.14134267 -38.50563622 165.87673187 C-38.49811458 170.33218856 -38.51384132 174.78695311 -38.54754257 179.24228287 C-38.55579874 180.87894018 -38.55549888 182.51566602 -38.54607964 184.15231705 C-38.53450009 186.38506008 -38.5535057 188.61551856 -38.58024597 190.8480835 C-38.58301135 192.09803478 -38.58577673 193.34798607 -38.58862591 194.63581467 C-39.21948242 197.78295898 -39.21948242 197.78295898 -41.56802845 200.1851387 C-44.811184 202.13953043 -46.49503753 202.41690705 -50.21948242 201.78295898 C-53.06728861 199.55089467 -54.06945908 198.233029 -55.21948242 194.78295898 C-55.32226219 192.842443 -55.36586234 190.89859845 -55.37770081 188.95539856 C-55.39238403 187.13175529 -55.39238403 187.13175529 -55.40736389 185.27127075 C-55.41326803 183.9220585 -55.41907848 182.57284583 -55.42480469 181.22363281 C-55.43438371 179.80448623 -55.44439381 178.38534251 -55.45480347 176.96620178 C-55.481856 173.11114871 -55.50286368 169.2560834 -55.52280545 165.40098786 C-55.54466284 161.37307134 -55.57205274 157.34519258 -55.59886169 153.31730652 C-55.64879192 145.68882773 -55.69372953 138.06032798 -55.73688406 130.43180817 C-55.78625361 121.74747748 -55.84117279 113.06318468 -55.89656365 104.37889063 C-56.01038876 86.51361526 -56.11722666 68.64830413 -56.21948242 50.78295898 C-59.84700181 52.79056344 -63.47358072 54.79985441 -67.09938049 56.81056213 C-68.32710373 57.49111557 -69.55506149 58.17124613 -70.78327942 58.85090637 C-78.96491181 63.3788619 -87.09171462 67.98707861 -95.15698242 72.72045898 C-96.18350922 73.32273315 -97.21003601 73.92500732 -98.26766968 74.54553223 C-99.65727402 75.36108582 -99.65727402 75.36108582 -101.07495117 76.19311523 C-107.67915989 80.0625603 -114.32095768 83.86539261 -120.96948242 87.65795898 C-121.54799957 87.9880899 -122.12651672 88.31822083 -122.7225647 88.65835571 C-126.88733161 91.03475469 -131.05331517 93.40901614 -135.21948242 95.78295898 C-139.65495563 98.31056327 -144.08988267 100.83911959 -148.52380371 103.3694458 C-150.28480019 104.3739163 -152.04656167 105.37704527 -153.80834961 106.38012695 C-155.95360982 107.60412733 -158.09510293 108.83476157 -160.23217773 110.07299805 C-162.1827304 111.1895125 -164.15061348 112.27642416 -166.13647461 113.32885742 C-167.02753906 113.81644531 -167.91860352 114.3040332 -168.83666992 114.80639648 C-170.00238525 115.4200708 -170.00238525 115.4200708 -171.19165039 116.04614258 C-174.86189031 119.18966374 -176.03652426 122.92045344 -176.49685097 127.60655785 C-176.61019303 131.11910994 -176.62468168 134.62015263 -176.60766602 138.13452148 C-176.61173612 139.4837893 -176.61708046 140.83305379 -176.62359619 142.18231201 C-176.63722359 145.83109527 -176.63199024 149.47962285 -176.62245893 153.12841034 C-176.6148385 156.9554867 -176.62191455 160.78254187 -176.62661743 164.60961914 C-176.63206806 171.03527741 -176.62490161 177.46083208 -176.6105957 183.88647461 C-176.59427047 191.30456406 -176.59955947 198.72240611 -176.61607492 206.14048958 C-176.62970958 212.52117587 -176.63159979 218.90178789 -176.62375891 225.28248405 C-176.61909325 229.08828662 -176.61842694 232.89397307 -176.62836838 236.69976807 C-176.63706469 240.27858248 -176.63096797 243.85707939 -176.61368561 247.43585968 C-176.60785743 249.36794097 -176.61671355 251.30004926 -176.62606812 253.2321167 C-176.58048722 259.48592369 -176.41972652 264.32853031 -173.21948242 269.78295898 C-170.59865147 271.99467839 -170.59865147 271.99467839 -167.41479492 273.60717773 C-166.27397461 274.24333008 -165.1331543 274.87948242 -163.95776367 275.53491211 C-162.75382765 276.18101028 -161.54939578 276.8261853 -160.34448242 277.47045898 C-157.98875246 278.7586193 -155.63942071 280.05786381 -153.28979492 281.35717773 C-152.24581543 281.92009521 -151.20183594 282.4830127 -150.1262207 283.06298828 C-142.9589707 287.30398242 -142.9589707 287.30398242 -141.21948242 290.78295898 C-140.94089861 293.98667279 -140.93040914 296.15379948 -142.28198242 299.09545898 C-144.45616899 300.98910535 -146.21221936 301.82662718 -149.10620117 302.06030273 C-153.97929763 301.42076512 -158.07961182 298.25538171 -162.21948242 295.78295898 C-163.71601374 294.95891959 -165.2162898 294.14165838 -166.71948242 293.32983398 C-167.51249756 292.89968994 -168.3055127 292.4695459 -169.12255859 292.02636719 C-170.69673747 291.17316192 -172.27236365 290.32262009 -173.84960938 289.47509766 C-179.83518982 286.18554776 -185.41677622 282.78009034 -189.03198242 276.78295898 C-189.43030273 276.14358398 -189.82862305 275.50420898 -190.23901367 274.84545898 C-191.34829818 272.511984 -191.75099911 270.31490662 -192.21948242 267.78295898 C-192.92443848 267.79866943 -193.62939453 267.81437988 -194.35571289 267.83056641 C-197.60188521 267.89357565 -200.84792822 267.93215694 -204.09448242 267.97045898 C-205.75737305 268.00816406 -205.75737305 268.00816406 -207.45385742 268.04663086 C-217.10654882 268.13180167 -225.57778632 267.1976685 -232.81323242 260.33764648 C-235.14806293 257.75636165 -237.21948242 255.35647599 -237.21948242 251.78295898 C-238.33021118 251.80652466 -238.33021118 251.80652466 -239.46337891 251.83056641 C-242.86116715 251.89343438 -246.25883246 251.93211339 -249.65698242 251.97045898 C-250.82165039 251.9955957 -251.98631836 252.02073242 -253.1862793 252.04663086 C-261.34909416 252.11561239 -268.02363168 251.39371056 -275.03198242 247.03295898 C-280.47917177 241.43013565 -281.81655634 236.60536285 -281.76879883 229.05297852 C-281.77902069 228.20809875 -281.78924255 227.36321899 -281.79977417 226.49273682 C-281.82743504 223.71678851 -281.82566304 220.9418407 -281.82104492 218.16577148 C-281.82882641 216.22435136 -281.83749731 214.28293461 -281.84701538 212.34152222 C-281.86191173 208.27810618 -281.86137828 204.21503775 -281.85083008 200.15161133 C-281.83924703 194.9607799 -281.87309709 189.77137726 -281.91951942 184.58078194 C-281.94907697 180.57253796 -281.95072644 176.56463478 -281.94449997 172.55630112 C-281.94552237 170.64344326 -281.95592216 168.73056532 -281.97612381 166.81781387 C-282.14297328 148.81060872 -282.14297328 148.81060872 -276.8543396 142.29684448 C-270.97738351 136.85475528 -264.86903378 135.6467543 -257.04370117 135.68530273 C-255.88676758 135.68852539 -254.72983398 135.69174805 -253.5378418 135.69506836 C-252.3396582 135.70344727 -251.14147461 135.71182617 -249.90698242 135.72045898 C-248.08070313 135.72722656 -248.08070313 135.72722656 -246.2175293 135.73413086 C-243.21813017 135.74589321 -240.21883153 135.76233072 -237.21948242 135.78295898 C-236.79022461 134.64020508 -236.79022461 134.64020508 -236.35229492 133.47436523 C-233.78551141 127.37604164 -230.08303772 124.31655295 -224.28198242 121.54467773 C-219.95869756 119.94801003 -215.84476294 119.6618037 -211.26245117 119.68530273 C-210.15063477 119.68852539 -209.03881836 119.69174805 -207.89331055 119.69506836 C-206.74282227 119.70344727 -205.59233398 119.71182617 -204.40698242 119.72045898 C-203.2371582 119.7249707 -202.06733398 119.72948242 -200.86206055 119.73413086 C-197.98114884 119.74588968 -195.10034198 119.76232473 -192.21948242 119.78295898 C-192.02467285 119.16880127 -191.82986328 118.55464355 -191.62915039 117.921875 C-191.36763184 117.11419678 -191.10611328 116.30651855 -190.83666992 115.47436523 C-190.57998535 114.67458252 -190.32330078 113.8747998 -190.05883789 113.05078125 C-187.78092817 106.89618457 -183.7623184 104.36875576 -178.34838867 101.07202148 C-177.77513351 100.722892 -177.20187836 100.37376251 -176.61125183 100.01405334 C-170.48367625 96.30209881 -164.26463489 92.7524143 -158.03198242 89.22045898 C-155.55869802 87.81400969 -153.08637398 86.40587568 -150.61401367 84.99780273 C-149.99350128 84.6446701 -149.37298889 84.29153748 -148.7336731 83.92770386 C-142.54739023 80.405208 -136.38231012 76.84630908 -130.21948242 73.28295898 C-117.19088721 65.75515015 -104.12711175 58.28958159 -91.0581665 50.83215332 C-85.91919252 47.89973962 -80.78052709 44.96678677 -75.64251709 42.03268433 C-73.82549152 40.99529941 -72.00809341 39.95856944 -70.19067383 38.921875 C-69.08771973 38.2920874 -67.98476562 37.6622998 -66.84838867 37.01342773 C-65.87973877 36.46066162 -64.91108887 35.90789551 -63.91308594 35.33837891 C-62.5797522 34.56844604 -62.5797522 34.56844604 -61.21948242 33.78295898 C-60.2990918 33.27337646 -59.37870117 32.76379395 -58.43041992 32.23876953 C-56.00453375 30.94398402 -56.00453375 30.94398402 -55.21557617 28.25952148 C-55.03124023 27.31850586 -54.8469043 26.37749023 -54.65698242 25.40795898 C-53.74339285 20.83371049 -52.4907861 18.16087462 -49.21948242 14.78295898 C-44.80658564 11.97826074 -39.98502542 9.91972461 -35.21948242 7.78295898 C-34.35242676 7.38931152 -33.48537109 6.99566406 -32.59204102 6.59008789 C-29.7500097 5.31412443 -26.89436148 4.07503493 -24.03198242 2.84545898 C-23.13044434 2.44359375 -22.22890625 2.04172852 -21.30004883 1.62768555 C-14.76590644 -1.10190166 -6.64141632 -3.64178422 0 0 Z M-221.21948242 138.78295898 C-223.10221247 141.56814157 -223.47098394 143.77918822 -223.48017883 147.10264587 C-223.48726364 147.95916245 -223.49434845 148.81567902 -223.50164795 149.69815063 C-223.49917053 150.62968964 -223.49669312 151.56122864 -223.49414062 152.52099609 C-223.49925156 153.50841293 -223.50436249 154.49582977 -223.5096283 155.51316833 C-223.5235345 158.77894136 -223.52256677 162.04450361 -223.52026367 165.31030273 C-223.52414996 167.57947366 -223.52848448 169.84864386 -223.5332489 172.11781311 C-223.54071328 176.87495278 -223.54041818 181.63201823 -223.53515625 186.38916016 C-223.52936057 192.48692641 -223.54629416 198.58438902 -223.56950092 204.68210506 C-223.58422857 209.36867551 -223.58511128 214.05517267 -223.5819912 218.74176216 C-223.58250487 220.99004277 -223.58775117 223.23832742 -223.59780312 225.48658562 C-223.61013153 228.62976728 -223.60339719 231.77235528 -223.59179688 234.91552734 C-223.59944061 235.84504211 -223.60708435 236.77455688 -223.61495972 237.73223877 C-223.57587323 242.52079621 -223.48315008 245.98712803 -220.21948242 249.78295898 C-213.53620085 253.49727777 -213.53620085 253.49727777 -193.21948242 251.78295898 C-193.21948242 213.50295898 -193.21948242 175.22295898 -193.21948242 135.78295898 C-213.90425152 133.81072526 -213.90425152 133.81072526 -221.21948242 138.78295898 Z M7.78051758 150.78295898 C7.78051758 179.16295898 7.78051758 207.54295898 7.78051758 236.78295898 C21.20327111 232.75613293 30.09840986 228.02585421 37.53833008 215.92358398 C43.44736462 204.9048046 45.27950329 194.13149622 42.02661133 181.96264648 C38.24175652 170.59224585 31.57416166 161.09137951 20.93286133 155.20874023 C16.47437607 153.1145123 12.64823138 151.75650174 7.78051758 150.78295898 Z M-265.21948242 153.78295898 C-266.39711579 157.31585908 -266.35377513 160.12329051 -266.36474609 163.85302734 C-266.36810471 164.56880447 -266.37146332 165.2845816 -266.37492371 166.02204895 C-266.38442527 168.38898451 -266.38637636 170.75584929 -266.38745117 173.12280273 C-266.39066411 174.7680311 -266.39402821 176.41325918 -266.39753723 178.05848694 C-266.40352637 181.50758527 -266.40537733 184.95665855 -266.40478516 188.40576172 C-266.4046835 192.8254621 -266.41834019 197.24500195 -266.43555737 201.66466427 C-266.44667491 205.06271605 -266.44870445 208.46072897 -266.44817543 211.85879707 C-266.44935574 213.48828243 -266.4537804 215.11776879 -266.4615078 216.74723625 C-266.47130357 219.02610404 -266.46843149 221.30462271 -266.46240234 223.58349609 C-266.46382736 224.88016708 -266.46525238 226.17683807 -266.46672058 227.51280212 C-266.23513502 230.575926 -265.94322859 232.27840436 -264.21948242 234.78295898 C-256.75996203 238.51271918 -247.55947976 235.78295898 -239.21948242 235.78295898 C-239.21948242 208.06295898 -239.21948242 180.34295898 -239.21948242 151.78295898 C-252.94941451 150.37215708 -252.94941451 150.37215708 -265.21948242 153.78295898 Z " fill="#000000" transform="translate(281.219482421875,62.217041015625)"/>
<path d="M0 0 C8.25585774 6.71195488 15.63986802 14.5200397 23.125 22.0625 C24.28361712 23.22614753 25.4424699 24.38956046 26.6015625 25.55273438 C29.40375764 28.36580065 32.20277314 31.18199374 35 34 C39.45978662 30.36656705 43.56466423 26.48898484 47.58203125 22.375 C48.08467499 21.86211426 48.58731873 21.34922852 49.10519409 20.82080078 C51.20192738 18.6789512 53.29661752 16.5354546 55.3762207 14.37695312 C63.86232425 5.58582404 72.23214841 -3.02294423 85.125 -3.3125 C94.40575401 -3.20949496 100.45523852 -0.19065734 107.20703125 6.0625 C112.8219854 12.13007572 115.15673529 17.81041504 115.375 26.0625 C115.42398438 27.31160156 115.47296875 28.56070313 115.5234375 29.84765625 C114.96639746 38.94455344 108.77636955 45.95172061 102.51171875 51.9765625 C101.80852005 52.67268646 101.10532135 53.36881042 100.3808136 54.08602905 C98.16129944 56.27785115 95.92494936 58.45150535 93.6875 60.625 C92.16746468 62.11992014 90.64857314 63.61600422 89.13085938 65.11328125 C85.43364419 68.75576161 81.72123595 72.3820699 78 76 C81.89381793 80.68565146 85.9624701 85.05159325 90.3515625 89.2734375 C91.54486666 90.43949473 92.73755669 91.60618071 93.9296875 92.7734375 C95.77798511 94.578546 97.6296661 96.37948551 99.4921875 98.16992188 C113.97678314 112.11974869 113.97678314 112.11974869 115.56640625 122.80859375 C115.5552216 133.19913667 113.78249103 140.21664617 106.625 147.875 C99.19950683 154.7342791 92.24823424 156.39869287 82.3125 156.265625 C67.69665998 155.09360009 57.10311163 140.24347179 47.375 130.4375 C46.26456039 129.32202917 45.15388462 128.20679339 44.04296875 127.09179688 C41.35925841 124.39722369 38.67873064 121.69952327 36 119 C31.31434854 122.89381793 26.94840675 126.9624701 22.7265625 131.3515625 C21.56050527 132.54486666 20.39381929 133.73755669 19.2265625 134.9296875 C17.421454 136.77798511 15.62051449 138.6296661 13.83007812 140.4921875 C-0.04894046 154.90326046 -0.04894046 154.90326046 -10.58984375 156.56640625 C-21.35487348 156.55384496 -27.94925468 154.08098839 -35.875 146.8125 C-41.49738864 140.79206615 -44.11729652 134.73392339 -44.5 126.5 C-43.90148726 114.30744043 -37.24128702 107.24715549 -29 99 C-27.68201416 97.67162109 -27.68201416 97.67162109 -26.33740234 96.31640625 C-19.92015662 89.84875202 -13.47025825 83.41460563 -7 77 C-10.70254379 72.4420184 -14.68186454 68.26714719 -18.87890625 64.1640625 C-19.41631439 63.63689636 -19.95372253 63.10973022 -20.50741577 62.56658936 C-22.75595601 60.36324528 -25.00620302 58.16198277 -27.27124023 55.97558594 C-36.03896332 47.49696416 -43.95691718 39.71341124 -44.3125 26.875 C-44.15929436 18.00085808 -41.41024646 12.10624738 -35.375 5.625 C-25.8479249 -3.23350842 -11.84753375 -6.98523513 0 0 Z M-26 20 C-28.05739953 23.53845913 -28.63362285 25.88145144 -28 30 C-24.29902959 36.12127994 -19.13680715 41.05806586 -14.01171875 45.97265625 C-12.48576203 47.46361354 -10.96038823 48.95516764 -9.43554688 50.44726562 C-7.05412331 52.76659723 -4.66837097 55.08089426 -2.2722168 57.38500977 C0.05735319 59.62991136 2.36759559 61.89330137 4.67578125 64.16015625 C5.39550613 64.84263931 6.11523102 65.52512238 6.85676575 66.22828674 C9.89156423 69.2313791 11.79555239 71.48861268 13.39526367 75.48999023 C12.79318892 80.8365182 9.75158184 83.35169781 6 87 C5.10287292 87.9191066 5.10287292 87.9191066 4.18762207 88.85678101 C2.35996738 90.72281206 0.50431778 92.55671842 -1.359375 94.38671875 C-2.73580735 95.75051958 -4.11210557 97.11445579 -5.48828125 98.47851562 C-7.6281494 100.59349012 -9.76960882 102.70680568 -11.91357422 104.81762695 C-14.00408412 106.87791892 -16.08831517 108.94440184 -18.171875 111.01171875 C-18.81251892 111.63890305 -19.45316284 112.26608734 -20.11322021 112.91227722 C-25.63553597 118.22980418 -25.63553597 118.22980418 -28.3203125 125.2109375 C-27.79724622 131.00651194 -25.99587434 133.80539099 -21.69140625 137.6875 C-18.66392496 140.03676954 -16.04586069 140.5220833 -12.19760132 140.47122192 C-9.45555558 139.88325719 -8.26743515 138.85399955 -6.21337891 136.96044922 C-5.51931946 136.32282654 -4.82526001 135.68520386 -4.11016846 135.02825928 C-0.74356527 131.79233557 2.5389006 128.48536585 5.7890625 125.1328125 C7.23898671 123.65566413 8.68952544 122.17911876 10.140625 120.703125 C12.39577453 118.40456927 14.64680206 116.10250163 16.88769531 113.79003906 C19.0725801 111.53862886 21.27298783 109.30341296 23.4765625 107.0703125 C24.14233307 106.37559845 24.80810364 105.6808844 25.49404907 104.96511841 C28.32902005 102.11403632 30.33317247 100.23849885 34.15771484 98.87060547 C41.18462978 99.19050453 45.59692244 105.36943722 50.22265625 110.09765625 C51.39640053 111.28276039 51.39640053 111.28276039 52.59385681 112.49180603 C55.08827533 115.01061238 57.57614069 117.53573945 60.0625 120.0625 C63.33931612 123.39244855 66.62263571 126.71577912 69.91015625 130.03515625 C70.66128189 130.80287857 71.41240753 131.57060089 72.18629456 132.36158752 C72.89060104 133.07250046 73.59490753 133.78341339 74.32055664 134.51586914 C74.9361293 135.14191544 75.55170197 135.76796173 76.18592834 136.41297913 C79.18934464 139.04048524 81.39984886 139.93331654 85.375 140.375 C90.74996697 139.81896893 93.49387576 137.3872197 97.375 133.8125 C99.73220685 129.73271891 100.02666761 126.58125315 99 122 C97.70485684 119.999697 97.70485684 119.999697 95.95092773 118.18945312 C95.31500702 117.49819336 94.6790863 116.80693359 94.02389526 116.09472656 C90.78754655 112.74511369 87.46429841 109.49933438 84.09765625 106.28125 C82.61549717 104.84091244 81.13440764 103.39947361 79.65429688 101.95703125 C77.35066231 99.71527066 75.04190534 97.48037971 72.71459961 95.26318359 C70.44855951 93.10013451 68.2090559 90.91237763 65.97265625 88.71875 C65.27278091 88.063302 64.57290558 87.407854 63.8518219 86.73254395 C60.84708188 83.74584834 58.5585503 81.35196342 58.12670898 77.01757812 C58.63832328 71.70375594 62.34586481 68.55668866 66 65 C66.92120636 64.05341522 66.92120636 64.05341522 67.86102295 63.08770752 C69.76878437 61.13224736 71.70452766 59.2085568 73.6484375 57.2890625 C74.34643463 56.59485199 75.04443176 55.90064148 75.76358032 55.18539429 C77.96494549 52.99612131 80.16955519 50.81016264 82.375 48.625 C85.3023302 45.72420722 88.22636551 42.82015086 91.1484375 39.9140625 C92.15769791 38.9172496 92.15769791 38.9172496 93.18734741 37.90029907 C93.8053421 37.2856076 94.42333679 36.67091614 95.06005859 36.03759766 C95.60520111 35.49769196 96.15034363 34.95778625 96.71200562 34.40151978 C99.31703354 31.56688152 99.33883249 28.86505939 99.27734375 25.09375 C98.64504621 20.32034886 95.71692441 17.60540284 92.1875 14.625 C88.24333159 12.61424748 86.37095402 12.17102596 82 13 C76.2586613 17.16271399 71.31804044 22.5668549 66.359375 27.61328125 C64.94544277 29.03984267 63.53137643 30.46627118 62.1171875 31.89257812 C59.92093026 34.11375919 57.7263272 36.33653013 55.53417969 38.56176758 C53.39694718 40.72914541 51.25358252 42.89030683 49.109375 45.05078125 C48.45515564 45.71846024 47.80093628 46.38613922 47.12689209 47.0740509 C46.51235168 47.69197006 45.89781128 48.30988922 45.26464844 48.9465332 C44.46145172 49.76091606 44.46145172 49.76091606 43.64202881 50.5917511 C40.73911452 53.08136994 38.63809977 53.97080717 34.8034668 54.14624023 C29.16936623 52.44830698 26.14396244 48.84992747 22.14453125 44.66015625 C21.32047287 43.82286484 20.49641449 42.98557343 19.64738464 42.12290955 C17.0211629 39.44994076 14.41611493 36.75747828 11.8125 34.0625 C9.19481321 31.37465584 6.57288644 28.69114621 3.94548035 26.01280212 C2.31297628 24.34638328 0.68669033 22.67384522 -0.93266296 20.99464417 C-1.67055557 20.23723434 -2.40844818 19.47982452 -3.16870117 18.69946289 C-3.81377121 18.0318544 -4.45884125 17.36424591 -5.12345886 16.67640686 C-8.0536073 14.05876057 -10.38380726 13.10664874 -14.25 12.4375 C-19.5524572 13.23286858 -22.5038847 16.04577304 -26 20 Z " fill="#000000" transform="translate(397,181)"/>
</svg>
