<svg xmlns="http://www.w3.org/2000/svg" width="210mm" height="210mm" viewBox="0 0 210 210" id="shuffle">
  <path fill="#2a7fff" d="m -112.03334,30.143999 c -8.07008,0.01003 -16.1395,0.03096 -24.20886,0.06976 8.06918,-0.0388 16.13896,-0.05971 24.20886,-0.06976 z"></path>
  <g transform="translate(262.66 13.686)scale(.7608)">
    <path fill="#2a7fff" fill-rule="evenodd" d="m -253.17924,44.013444 c 0.24003,0.132808 0.47789,0.26652 0.71572,0.400492 -0.23799,-0.13384 -0.47556,-0.267795 -0.71572,-0.400492 z m 1.08624,0.609264 c 0.32076,0.182369 0.63961,0.365919 0.95652,0.550355 -0.31713,-0.184304 -0.6355,-0.368155 -0.95652,-0.550355 z m 0.99632,0.573093 c 0.34523,0.201102 0.6885,0.403198 1.02938,0.606681 -0.34083,-0.203443 -0.684,-0.405749 -1.02938,-0.606681 z m 1.02938,0.606681 c 1.26863,0.757227 2.5059,1.532036 3.71452,2.324405 -1.20857,-0.792348 -2.44592,-1.567199 -3.71452,-2.324405 z m 3.77497,2.363679 c 1.18872,0.780532 2.34987,1.57801 3.48507,2.393136 -1.1352,-0.815142 -2.29635,-1.612591 -3.48507,-2.393136 z m 3.59667,2.473235 c 0.55115,0.396907 1.09678,0.797844 1.63608,1.203026 -0.53933,-0.405193 -1.0849,-0.806108 -1.63608,-1.203026 z m 1.76011,1.296562 c 0.49872,0.375878 0.99251,0.755399 1.48157,1.138431 -0.48903,-0.38303 -0.98288,-0.762556 -1.48157,-1.138431 z m 1.64537,1.266071 c 0.49035,0.385709 0.97523,0.775412 1.45624,1.168405 -0.48101,-0.392975 -0.96589,-0.782709 -1.45624,-1.168405 z m 1.78027,1.435055 c 0.48467,0.399312 0.96663,0.800851 1.44227,1.207677 -0.47564,-0.406828 -0.9576,-0.808363 -1.44227,-1.207677 z m 18.34822,18.828308 c 0.15923,0.195294 0.31647,0.391843 0.4744,0.588079 -0.15859,-0.195858 -0.31512,-0.392827 -0.4744,-0.588079 z m 1.66862,2.072743 c 0.26504,0.333198 0.52557,0.666689 0.78809,1.000456 -0.26252,-0.333767 -0.52305,-0.667258 -0.78809,-1.000456 z m 1.6392,2.085142 c 0.28282,0.363722 0.56068,0.725865 0.83974,1.088824 -0.2793,-0.363064 -0.55695,-0.725139 -0.83974,-1.088824 z m 1.62161,2.107366 c 0.31501,0.413472 0.62452,0.823598 0.9343,1.234549 -0.30991,-0.411086 -0.6191,-0.820918 -0.9343,-1.234549 z m 1.49757,1.982309 c 0.35457,0.473218 0.70249,0.941109 1.04904,1.4087 -0.34655,-0.467588 -0.69447,-0.935482 -1.04904,-1.4087 z m 1.52548,2.052071 c 0.35401,0.479883 0.70141,0.953659 1.04595,1.425234 -0.34467,-0.471768 -0.6917,-0.945034 -1.04595,-1.425234 z m 1.37874,1.881021 c 0.41545,0.570272 0.82185,1.130461 1.22164,1.684652 -0.39976,-0.554178 -0.80624,-1.114417 -1.22164,-1.684652 z m -36.1239,11.351244 c 0.53083,0.654992 1.06733,1.32606 1.60663,2.005047 -0.53944,-0.679154 -1.07564,-1.349875 -1.60663,-2.005047 z m 26.27283,1.434539 -14.12317,14.123173 c 0.57158,0.72569 1.137,1.43854 1.69447,2.13268 0.54309,0.92078 1.20717,1.97405 1.9575,3.12229 -0.75028,1.14817 -1.41444,2.20105 -1.9575,3.12177 -4.40478,5.48471 -9.30399,12.08837 -13.84413,17.6904 -4.57124,5.64041 -8.88577,10.4092 -14.1087,14.83733 -5.22293,4.42815 -11.35414,8.51545 -17.3152,11.12697 -4.19534,1.83794 -8.30488,2.94348 -12.17293,3.71502 l -29.47003,29.47004 c 0.76308,0.89519 1.76789,1.81502 3.09594,2.75073 2.4978,1.75988 6.08592,3.55378 10.42313,4.35995 1.89754,0.35271 3.92081,0.50776 6.00586,0.52296 2.68076,0.0195 5.46309,-0.19226 8.2093,-0.5116 4.88217,-0.56768 9.76056,-1.4968 16.00729,-3.58686 6.24674,-2.09005 14.08092,-5.38276 20.95014,-9.07283 6.86921,-3.69007 12.85033,-7.83056 18.26193,-12.45919 5.41163,-4.62862 10.40707,-9.85168 15.17582,-15.52876 4.74887,-5.65342 9.27168,-11.75568 13.00956,-16.96434 3.85813,4.34167 7.88075,8.3851 12.16668,12.05094 5.41166,4.62863 11.3922,8.76912 18.26143,12.45919 0.0605,0.0325 0.12232,0.0642 0.18293,0.0966 z m 42.41032,73.456493 c 0.42663,0.22819 0.85658,0.45466 1.28984,0.67955 -0.43321,-0.22487 -0.86325,-0.45138 -1.28984,-0.67955 z m 1.28984,0.67955 c 0.86662,0.44983 1.74499,0.89271 2.63085,1.32705 -0.88562,-0.43428 -1.76443,-0.87731 -2.63085,-1.32705 z m 2.63085,1.32705 c 0.44288,0.21714 0.88738,0.43222 1.33325,0.64492 -0.44579,-0.2127 -0.89044,-0.42778 -1.33325,-0.64492 z m 1.33325,0.64492 c 0.44573,0.21263 0.89248,0.42317 1.33997,0.63097 -0.44756,-0.20787 -0.89417,-0.41827 -1.33997,-0.63097 z m 1.33997,0.63097 c 0.89533,0.41576 1.79256,0.82129 2.6877,1.21543 -0.89494,-0.39414 -1.79256,-0.79968 -2.6877,-1.21543 z m 2.6877,1.21543 c 0.44749,0.19704 0.89434,0.39133 1.33996,0.58239 -0.44559,-0.19109 -0.8925,-0.38532 -1.33996,-0.58239 z m 1.33996,0.58239 c 0.44482,0.19072 0.8884,0.37838 1.33015,0.56276 -0.44181,-0.18445 -0.88526,-0.37197 -1.33015,-0.56276 z m -152.37158,20.80287 c -0.16801,-0.19712 -0.32435,-0.39293 -0.46974,-0.58756 0.14523,0.19474 0.30162,0.39033 0.46974,0.58756 z m -0.46974,-0.58756 c -0.14539,-0.19464 -0.27985,-0.38836 -0.4041,-0.58033 0.12398,0.19209 0.25887,0.38557 0.4041,0.58033 z m -0.4041,-0.58033 c -0.12208,-0.18863 -0.23334,-0.37584 -0.33642,-0.56172 0.10282,0.18583 0.21471,0.37314 0.33642,0.56172 z m 86.09036,-84.04861 c -0.84023,-1.06676 -1.6986,-2.17315 -2.56005,-3.28508 0.8609,1.11127 1.72034,2.21899 2.56005,3.28508 z m -9.92962,-12.775968 c 0.33356,0.422558 0.66746,0.845728 1.00303,1.274338 -0.33552,-0.42854 -0.6695,-0.85184 -1.00303,-1.274338 z m 2.26702,2.900598 c 0.97216,1.25132 1.94236,2.50191 2.91405,3.76153 -0.97216,-1.26015 -1.94141,-2.50969 -2.91405,-3.76153 z m -49.09777,65.81665 c -0.52361,0.098 -1.04288,0.19081 -1.55649,0.27854 0.51424,-0.088 1.03227,-0.18031 1.55649,-0.27854 z m 125.29674,9.0563 c 0.41871,0.17458 0.83573,0.34667 1.25058,0.51521 -0.41485,-0.16857 -0.83187,-0.34059 -1.25058,-0.51521 z m 1.70119,0.69556 c 0.28782,0.11582 0.57611,0.23251 0.86145,0.3452 -0.28529,-0.11269 -0.57368,-0.22938 -0.86145,-0.3452 z m 1.15032,0.45786 c 0.34023,0.1335 0.67999,0.26651 1.01596,0.39532 -0.33595,-0.12882 -0.67575,-0.2618 -1.01596,-0.39532 z"></path>
    <path fill="#59f" fill-rule="evenodd" d="M-299.4963 30.214286c-2.08503.01521-4.10832.170256-6.00586.522965-4.33721.806172-7.92533 2.60007-10.42313 4.359941-2.4978 1.759879-3.8608 3.463473-4.59869 5.052923-.7379 1.589439-.85112 3.065536-.85112 5.109247.00006 2.043721.11343 4.655298 1.02167 7.096207.90826 2.440916 2.61143 4.71198 4.71186 6.755661 2.10044 2.043679 4.59867 3.860141 8.11836 4.995561 3.5197 1.13542 8.06133 1.58954 13.22761 2.384351 5.16625.794798 10.95626 1.930342 16.91733 4.54184 5.96108 2.61152 12.09227 6.698829 17.3152 11.12697 5.22293 4.428141 9.53746 9.196927 14.1087 14.837336 3.96554 4.893042 8.20496 10.549432 12.14966 15.557712l25.20776-25.207767c-3.59506-4.984282-7.84109-10.671609-12.29487-15.973703-4.76875-5.67708-9.76419-10.900143-15.17582-15.528769-5.41162-4.628628-11.39272-8.769117-18.26193-12.459186-6.86922-3.69007-14.7034-6.98278-20.95014-9.07283-6.24673-2.09006-11.12512-3.019176-16.00729-3.586864-2.74621-.319328-5.52854-.531085-8.2093-.511595zM-289.5512 168.30146c-1.62801.32473-3.21408.59139-4.7444.82683-5.16628.7948-9.70791 1.24893-13.22761 2.38435-3.51969 1.13542-6.01794 2.95189-8.11836 4.99556-2.10045 2.04369-3.8036 4.31475-4.71186 6.75566-.90824 2.4409-1.02159 5.05249-1.02167 7.0962 0 2.04371.11322 3.51981.85112 5.10925.34557.74435.83066 1.51371 1.50275 2.30219z"></path>
    <path fill="#06f" fill-rule="evenodd" d="m -136.2422,30.21377 c -2.55199,-0.0358 -4.12735,1.939893 -4.22351,3.88865 v 17.062524 c -0.0101,0.0013 -0.0204,0.0019 -0.0305,0.0031 -4.88217,0.56768 -9.76057,1.496801 -16.00729,3.586861 -6.24674,2.09005 -14.08144,5.382758 -20.95066,9.072832 -6.86923,3.69007 -12.84976,7.830558 -18.26143,12.459187 -4.28593,3.665837 -8.30855,7.70927 -12.16668,12.050945 -0.23228,-0.323678 -0.47649,-0.660379 -0.71469,-0.990637 l -11.08459,11.084595 42.41032,73.456493 c 6.82541,3.6506 14.57597,6.90454 20.76773,8.97619 6.24672,2.09006 11.12512,3.0192 16.00729,3.58688 0.0101,0.001 0.0203,0.002 0.0305,0.003 V 201.517 c 0.15386,3.11801 4.09483,6.30608 9.76322,1.21129 l 15.94993,-15.94993 17.148311,-17.14831 c 2.368841,-2.36883 2.368841,-6.18311 0,-8.55193 l -17.064591,-17.06407 -16.03365,-16.03417 c -1.60014,-1.63607 -3.39076,-2.33907 -4.99711,-2.34301 -2.67724,-0.007 -4.84347,1.92992 -4.76611,4.72943 v 17.82217 c -4.37391,-0.78188 -9.09688,-1.92229 -13.9392,-4.04368 -5.96109,-2.61151 -12.09229,-6.69883 -17.31523,-11.12697 -5.22293,-4.42814 -9.53746,-9.19694 -14.1087,-14.83734 -0.0981,-0.12106 -0.1987,-0.24854 -0.29714,-0.37052 0.0985,-0.12208 0.19895,-0.24987 0.29714,-0.37104 4.57124,-5.6404 8.88577,-10.40919 14.1087,-14.83733 5.22294,-4.428158 11.35413,-8.515462 17.31523,-11.126971 4.84232,-2.1214 9.56529,-3.261813 13.9392,-4.043683 v 17.822174 c -0.0774,2.7995 2.08887,4.73642 4.76611,4.72942 1.60635,-0.004 3.39697,-0.70694 4.99711,-2.34301 l 16.03365,-16.03416 17.064591,-17.064074 c 2.368841,-2.36882 2.368841,-6.183104 0,-8.551934 l -17.148311,-17.148307 -15.94993,-15.94993 c -2.12564,-1.910546 -4.00852,-2.65588 -5.53971,-2.677356 z m -106.563,20.347077 c 0.033,0.02368 0.0663,0.04708 0.0992,0.0708 -0.0329,-0.02371 -0.0662,-0.04712 -0.0992,-0.0708 z m 1.74562,1.281575 c 0.0387,0.02906 0.0772,0.05823 0.11575,0.08733 -0.0386,-0.0291 -0.077,-0.05827 -0.11575,-0.08733 z m 1.62576,1.247471 c 0.0478,0.03744 0.096,0.07463 0.14364,0.112136 -0.0477,-0.0375 -0.0959,-0.07471 -0.14364,-0.112136 z m 1.61851,1.295527 c 0.10178,0.08321 0.20296,0.167087 0.30435,0.250632 -0.10139,-0.08353 -0.20254,-0.167431 -0.30435,-0.250632 z m 18.64431,19.068087 c 0.19577,0.239924 0.38828,0.482155 0.58293,0.722953 -0.19473,-0.240872 -0.38711,-0.482981 -0.58293,-0.722953 z m 1.67793,2.084628 c 0.26493,0.333113 0.52571,0.666806 0.78809,1.000456 -0.26252,-0.333767 -0.52305,-0.667258 -0.78809,-1.000456 z m 1.6392,2.085142 c 0.29631,0.381124 0.58812,0.761129 0.88056,1.141534 -0.29268,-0.380656 -0.58401,-0.760177 -0.88056,-1.141534 z m 1.60454,2.084628 c 0.32494,0.426408 0.64498,0.85063 0.96428,1.274342 -0.31975,-0.424199 -0.63889,-0.847437 -0.96428,-1.274342 z m 1.51464,2.005047 c 0.35401,0.472567 0.70299,0.941707 1.04904,1.4087 -0.34655,-0.467588 -0.69447,-0.935482 -1.04904,-1.4087 z m 1.50275,2.021064 c 0.36126,0.489718 0.71726,0.975183 1.06868,1.456241 -0.35203,-0.481833 -0.70668,-0.965632 -1.06868,-1.456241 z m 1.40147,1.912028 c 0.41574,0.570764 0.82656,1.137025 1.2268,1.691886 -0.40143,-0.556506 -0.80958,-1.119177 -1.2268,-1.691886 z"></path>
  </g>
</svg>
