<svg xmlns="http://www.w3.org/2000/svg" enable-background="new 0 0 64 64" viewBox="0 0 64 64" id="search">
  <path d="M63.4,57.6l-7.4-7.4c1.8-2.4,2.9-5.4,2.9-8.7c0-3.3-1.2-6.4-3.1-8.9c0-0.6,0.1-1.1,0.1-1.6C56,15.6,43.4,3,28,3
	c-4.5,0-9,1.1-13,3.2c-1,0.5-1.4,1.7-0.8,2.7c0.5,1,1.7,1.4,2.7,0.8c1.5-0.8,3.1-1.4,4.7-1.9c-1.3,2.3-2.4,5.5-3.2,9.4
	c-4.1-0.7-7.8-1.7-10.4-3.1c-0.6-0.3-1.4-0.3-1.9,0c-0.3,0.1-0.6,0.4-0.8,0.7C1.8,19.6,0,25.2,0,31c0,15.4,12.6,28,28,28
	c4.6,0,9.2-1.2,13.3-3.4c1,0.2,2.1,0.4,3.2,0.4c3.3,0,6.3-1.1,8.7-2.9l7.4,7.4C61,60.8,61.5,61,62,61s1-0.2,1.4-0.6
	C64.2,59.6,64.2,58.4,63.4,57.6z M22.1,43.3C24,43.1,26,43,28,43c0.7,0,1.4,0,2.1,0c0.2,2.3,1,4.4,2.2,6.3C30.8,53.5,29.1,55,28,55
	C26.1,55,23.5,50.7,22.1,43.3z M30.2,39c-0.7,0-1.5,0-2.2,0c-2.2,0-4.4,0.1-6.5,0.3c-0.2-2-0.4-4.1-0.4-6.3h11.7
	C31.5,34.8,30.6,36.8,30.2,39z M4.1,33H17c0.1,2.3,0.2,4.6,0.5,6.8c-4,0.6-7.5,1.7-10.4,3C5.4,39.9,4.4,36.5,4.1,33z M7.6,18.4
	c2.8,1.2,6.2,2.2,10.1,2.8c-0.3,2.6-0.5,5.2-0.6,7.8h-13C4.4,25.2,5.6,21.6,7.6,18.4z M28,22c2.2,0,4.3-0.1,6.4-0.3
	c0.3,2.2,0.5,4.7,0.6,7.3H21c0.1-2.4,0.3-4.9,0.6-7.3C23.7,21.9,25.8,22,28,22z M38.9,28.1c-0.1-2.3-0.3-4.7-0.6-6.9
	c3.8-0.6,7.3-1.6,10.1-2.8c1.9,3.1,3.2,6.8,3.5,10.7c-2.2-1.3-4.7-2.1-7.4-2.1C42.5,27,40.7,27.4,38.9,28.1z M46,15.1
	c-2.3,0.9-5.1,1.7-8.3,2.2c-0.8-3.7-1.8-6.9-3.2-9.4C39,9.2,42.9,11.7,46,15.1z M28,7c1.9,0,4.2,4,5.7,10.8C31.9,17.9,29.9,18,28,18
	c-1.9,0-3.8-0.1-5.7-0.2C23.8,10.8,26.3,7,28,7z M9.4,46.2c2.4-1,5.4-1.9,8.7-2.4c0.8,4,1.9,7.6,3.4,10.3
	C16.7,52.7,12.5,49.9,9.4,46.2z M34.5,54.1c0.2-0.4,0.5-0.9,0.7-1.4c0.4,0.3,0.7,0.6,1.1,0.8C35.7,53.7,35.1,53.9,34.5,54.1z
	 M34,41.5C34,35.7,38.7,31,44.5,31S55,35.7,55,41.5S50.3,52,44.5,52S34,47.3,34,41.5z"></path>
</svg>
