<svg xmlns="http://www.w3.org/2000/svg" width="24" height="24" fill="none" viewBox="0 0 24 24" id="menu-dots">
  <path fill="#111" fill-rule="evenodd" d="M5 10.75C4.30964 10.75 3.75 11.3096 3.75 12 3.75 12.4142 3.41421 12.75 3 12.75 2.58579 12.75 2.25 12.4142 2.25 12 2.25 10.4812 3.48122 9.25 5 9.25 6.51878 9.25 7.75 10.4812 7.75 12 7.75 13.5188 6.51878 14.75 5 14.75 4.58579 14.75 4.25 14.4142 4.25 14 4.25 13.5858 4.58579 13.25 5 13.25 5.69036 13.25 6.25 12.6904 6.25 12 6.25 11.3096 5.69036 10.75 5 10.75zM12 10.75C11.3096 10.75 10.75 11.3096 10.75 12 10.75 12.6904 11.3096 13.25 12 13.25 12.6904 13.25 13.25 12.6904 13.25 12 13.25 11.3096 12.6904 10.75 12 10.75zM9.25 12C9.25 10.4812 10.4812 9.25 12 9.25 13.5188 9.25 14.75 10.4812 14.75 12 14.75 13.5188 13.5188 14.75 12 14.75 10.4812 14.75 9.25 13.5188 9.25 12zM19 10.75C18.3096 10.75 17.75 11.3096 17.75 12 17.75 12.6904 18.3096 13.25 19 13.25 19.6904 13.25 20.25 12.6904 20.25 12 20.25 11.5858 20.5858 11.25 21 11.25 21.4142 11.25 21.75 11.5858 21.75 12 21.75 13.5188 20.5188 14.75 19 14.75 17.4812 14.75 16.25 13.5188 16.25 12 16.25 10.4812 17.4812 9.25 19 9.25 19.4142 9.25 19.75 9.58579 19.75 10 19.75 10.4142 19.4142 10.75 19 10.75z" clip-rule="evenodd"></path>
</svg>
