<svg xmlns="http://www.w3.org/2000/svg" width="24" height="24" fill="none" viewBox="0 0 24 24" id="volume-loud">
  <path fill="#111" fill-rule="evenodd" d="M19.52 5.42387C19.8382 5.15869 20.3111 5.20169 20.5763 5.51989L20.0001 6.00003C20.5763 5.51989 20.576 5.51956 20.5763 5.51989L20.5774 5.52127 20.5787 5.52282 20.5817 5.52642 20.5892 5.53569C20.5949 5.54279 20.6019 5.55172 20.6103 5.56251 20.627 5.58409 20.6487 5.61308 20.6749 5.64965 20.7271 5.72279 20.7967 5.82619 20.8776 5.96104 21.0395 6.23085 21.2463 6.62602 21.4501 7.1558 21.8583 8.21717 22.2501 9.80846 22.2501 12 22.2501 14.1916 21.8583 15.7829 21.4501 16.8443 21.2463 17.374 21.0395 17.7692 20.8776 18.039 20.7967 18.1739 20.7271 18.2773 20.6749 18.3504 20.6487 18.387 20.627 18.416 20.6103 18.4376 20.6019 18.4483 20.5949 18.4573 20.5892 18.4644L20.5817 18.4736 20.5787 18.4772 20.5774 18.4788C20.5771 18.4791 20.5763 18.4802 20.0001 18L20.5763 18.4802C20.3111 18.7984 19.8382 18.8414 19.52 18.5762 19.2033 18.3123 19.1592 17.8426 19.4201 17.5245 19.4208 17.5237 19.4219 17.5222 19.4236 17.52 19.4289 17.5132 19.4394 17.4994 19.4543 17.4786 19.484 17.4368 19.5316 17.3668 19.5914 17.2673 19.7107 17.0684 19.8789 16.751 20.0501 16.3058 20.3919 15.4172 20.7501 14.0085 20.7501 12 20.7501 9.9916 20.3919 8.5829 20.0501 7.69427 19.8789 7.24905 19.7107 6.93171 19.5914 6.73278 19.5316 6.63325 19.484 6.56321 19.4543 6.52151 19.4394 6.50065 19.4289 6.48687 19.4236 6.48003 19.4219 6.47782 19.4207 6.47634 19.4201 6.47557 19.4201 6.47557 19.4201 6.47557 19.4201 6.47557M17.6359 8.34441C17.998 8.14325 18.4546 8.27371 18.6557 8.6358L18.0001 9.00003C18.6557 8.6358 18.6555 8.63548 18.6557 8.6358L18.6564 8.63711 18.6572 8.63851 18.6589 8.64155 18.6627 8.64867 18.6724 8.66702C18.6796 8.68109 18.6885 8.69885 18.6987 8.72036 18.7192 8.76338 18.7452 8.82138 18.7746 8.89493 18.8334 9.04209 18.906 9.25103 18.9766 9.52625 19.1179 10.0772 19.2501 10.8899 19.2501 12 19.2501 13.1101 19.1179 13.9229 18.9766 14.4738 18.906 14.749 18.8334 14.958 18.7746 15.1051 18.7452 15.1787 18.7192 15.2367 18.6987 15.2797 18.6885 15.3012 18.6796 15.319 18.6724 15.333L18.6627 15.3514 18.6589 15.3585 18.6572 15.3616 18.6564 15.363C18.6563 15.3633 18.6557 15.3643 18.0001 15L18.6557 15.3643C18.4546 15.7264 17.998 15.8568 17.6359 15.6557 17.2769 15.4562 17.1456 15.0056 17.3394 14.645L17.3444 14.6348C17.3513 14.6204 17.3644 14.5917 17.3819 14.5481 17.4168 14.4608 17.4692 14.3135 17.5236 14.1013 17.6323 13.6772 17.7501 12.9899 17.7501 12 17.7501 11.0101 17.6323 10.3229 17.5236 9.89881 17.4692 9.68654 17.4168 9.53922 17.3819 9.45201 17.3644 9.40837 17.3513 9.37965 17.3444 9.36526L17.3394 9.35502C17.1456 8.99444 17.2769 8.54387 17.6359 8.34441zM12.1403 4.90978C11.4261 5.25674 10.521 5.85164 9.2312 6.70205L9.01226 6.84641C8.9956 6.8574 8.97915 6.86824 8.96293 6.87895 8.58273 7.12974 8.31941 7.30343 8.03087 7.43078 7.74651 7.55627 7.44766 7.64593 7.14118 7.69768 6.83019 7.7502 6.51474 7.75013 6.05928 7.75004 6.03984 7.75004 6.02014 7.75003 6.00018 7.75003 4.55651 7.75003 4.06921 7.76631 3.6549 7.958 3.25454 8.14323 2.82814 8.54443 2.6189 8.93278 2.42242 9.29743 1.96754 9.43376 1.60289 9.23729 1.23824 9.04081 1.10191 8.58593 1.29838 8.22128 1.66151 7.54732 2.33025 6.9181 3.02506 6.59664 3.77669 6.24889 4.62225 6.24933 5.83916 6.24998 5.89213 6.25 5.94579 6.25003 6.00018 6.25003 6.5367 6.25003 6.71966 6.24762 6.89142 6.21862 7.0753 6.18757 7.25461 6.13377 7.42523 6.05848 7.58458 5.98815 7.73866 5.88945 8.18657 5.59411L8.45336 5.41821C9.68423 4.60663 10.6713 3.95576 11.4849 3.56055 12.3109 3.15928 13.1242 2.9361 13.9424 3.21531 14.2143 3.30809 14.476 3.44128 14.711 3.60646 15.4171 4.10266 15.716 4.88667 15.8779 5.78612 16.0371 6.67048 16.0915 7.84243 16.1593 9.30232L16.162 9.35983C16.2138 10.4748 16.2501 11.448 16.2501 12 16.2501 12.552 16.2138 13.5253 16.162 14.6402L16.1593 14.6977C16.0915 16.1576 16.0371 17.3296 15.8779 18.2139 15.716 19.1134 15.4171 19.8974 14.711 20.3936 14.476 20.5588 14.2143 20.692 13.9424 20.7848 13.1242 21.064 12.3109 20.8408 11.4849 20.4395 10.6713 20.0443 9.68423 19.3934 8.45336 18.5819L8.18657 18.4059C7.73866 18.1106 7.58458 18.0119 7.42523 17.9416 7.25461 17.8663 7.0753 17.8125 6.89142 17.7814 6.71966 17.7524 6.5367 17.75 6.00018 17.75 5.94579 17.75 5.89213 17.7501 5.83917 17.7501 4.62225 17.7507 3.77669 17.7512 3.02506 17.4034 2.33026 17.082 1.66151 16.4527 1.29838 15.7788.905762 15.0501.859693 14.2881.794187 13.2045.791589 13.1615.78896 13.1181.786278 13.0741.775014 12.8892.765966 12.7058.759736 12.526.745393 12.112 1.06935 11.7648 1.48332 11.7505 1.89728 11.7361 2.24449 12.0601 2.25884 12.4741 2.26455 12.6391 2.27293 12.8093 2.2835 12.9828 2.36055 14.247 2.40062 14.6622 2.6189 15.0673 2.82814 15.4556 3.25454 15.8568 3.6549 16.0421 4.06921 16.2338 4.55651 16.25 6.00018 16.25 6.02014 16.25 6.03983 16.25 6.05927 16.25 6.51474 16.2499 6.83019 16.2499 7.14118 16.3024 7.44766 16.3541 7.74651 16.4438 8.03087 16.5693 8.31941 16.6966 8.58273 16.8703 8.96292 17.1211 8.97915 17.1318 8.99559 17.1427 9.01226 17.1537L9.2312 17.298C10.521 18.1484 11.4261 18.7433 12.1403 19.0903 12.8526 19.4363 13.2088 19.4502 13.4579 19.3651 13.5953 19.3183 13.7298 19.2498 13.8486 19.1664 14.0652 19.0141 14.2627 18.7195 14.4016 17.9482 14.5411 17.1733 14.5925 16.1014 14.6636 14.5706 14.7157 13.451 14.7501 12.5118 14.7501 12 14.7501 11.4883 14.7157 10.549 14.6636 9.42946 14.5925 7.89871 14.5411 6.82677 14.4016 6.05188 14.2627 5.28052 14.0652 4.98595 13.8486 4.8337 13.7298 4.75023 13.5953 4.68181 13.4579 4.63492 13.2088 4.54989 12.8526 4.56376 12.1403 4.90978z" clip-rule="evenodd"></path>
</svg>
