<svg xmlns="http://www.w3.org/2000/svg" enable-background="new 0 0 32 32" viewBox="0 0 32 32" id="image">
  <path d="M4.9370117,26.5825195h15.3999023c0.5522461,0,1-0.4477539,1-1c0-0.2885742-0.1260376-0.5438843-0.3215332-0.7263794
	c-0.1787109-0.1668091-0.4147949-0.2736206-0.6784668-0.2736206H4.9370117C4.4204102,24.5825195,4,24.1621094,4,23.6455078
	V7.1806641c0-0.5170898,0.4204102-0.9375,0.9370117-0.9375h21.3076172c0.5166016,0,0.9370117,0.4204102,0.9370117,0.9375v10.0048828
	c0,0.2885132,0.1259766,0.5438232,0.3214722,0.7263794c0.1786499,0.1668091,0.4147949,0.2736206,0.6785278,0.2736206
	c0.5522461,0,1-0.4477539,1-1V7.1806641c0-1.6196289-1.3173828-2.9375-2.9370117-2.9375H4.9370117
	C3.3173828,4.2431641,2,5.5610352,2,7.1806641v16.4648438C2,25.2651367,3.3173828,26.5825195,4.9370117,26.5825195z"></path>
  <path d="M21.0048828,8.1699219c-1.7529297,0-3.1791992,1.4262695-3.1791992,3.1791992s1.4262695,3.1791992,3.1791992,3.1791992
	s3.1791992-1.4262695,3.1791992-3.1791992S22.7578125,8.1699219,21.0048828,8.1699219z M21.0048828,12.5283203
	c-0.6503906,0-1.1791992-0.5288086-1.1791992-1.1791992s0.5288086-1.1791992,1.1791992-1.1791992
	s1.1791992,0.5288086,1.1791992,1.1791992S21.6552734,12.5283203,21.0048828,12.5283203z"></path>
  <path d="M22.6855469 15.7358398c-.2553711-.3530273-.7133789-.4995117-1.1245117-.3613281l-3.1943359 1.0620117L12.71875 11.1665039c-.2138672-.199707-.5063477-.2949219-.7973633-.262207-.2915039.0336914-.5537109.1938477-.7163086.4379883l-6.237793 9.3461914c-.2045898.3066406-.2241211.7006836-.0507812 1.0253906.1733398.3251953.5112305.5288086.8798828.5297852l14.4121094.0385742c.0004883 0 .0014648 0 .0024414 0 .5512695 0 .9985352-.4458008 1-.9975586.0014648-.5522461-.4448242-1.0009766-.9975586-1.0024414L7.6650391 20.2485352l4.5498047-6.8168945 5.2216797 4.8720703c.2680664.2504883.6513672.3344727.9975586.2177734l3.0629883-1.0180664L22.375 18.7124023c.3242188.4467773.9492188.5463867 1.3964844.2216797.4467773-.3242188.5463867-.949707.2216797-1.3964844L22.6855469 15.7358398zM25.5314331 19.8361816c-.0003052.0003052-.0008545.0004272-.0011597.0007324l-2.7548828 2.8120117c-.1672974.1708374-.246582.3881836-.2669067.6090698-.0266724.2891846.0578613.5857544.2815552.8049927.1943359.1904297.4472656.2856445.699707.2856445.2592773 0 .5185547-.1000977.7143555-.300293l1.0405273-1.0621948v3.7706909c0 .5522461.4477539 1 1 1s1-.4477539 1-1v-3.7709351l1.0410156 1.062439c.3862305.3950195 1.019043.4003906 1.4140625.0146484.3945312-.3867188.4008789-1.0195312.0146484-1.4140625l-2.7553711-2.8120117c-.0003052-.0003052-.0008545-.0004272-.0011597-.0007324-.1815186-.1855469-.4331055-.302002-.7131958-.302002-.1124268 0-.2160645.0297852-.3169556.0640259C25.7772827 19.649231 25.6400757 19.7250977 25.5314331 19.8361816z"></path>
</svg>
